<svg width="72" height="41" viewBox="0 0 72 41" fill="none" xmlns="http://www.w3.org/2000/svg">
<path d="M56.8481 30.4149C56.4064 30.4149 56.062 30.2989 55.8149 30.0668C55.5679 29.8272 55.4443 29.5127 55.4443 29.1234C55.4443 28.7266 55.5716 28.4047 55.8262 28.1576C56.0807 27.9106 56.4214 27.787 56.8481 27.787C57.2674 27.787 57.6005 27.9106 57.8476 28.1576C58.1022 28.3972 58.2294 28.7154 58.2294 29.1122C58.2294 29.5015 58.1097 29.816 57.8701 30.0555C57.6305 30.2951 57.2898 30.4149 56.8481 30.4149ZM62.0576 30.2352C61.6608 30.2352 61.3014 30.1454 60.9795 29.9657C60.665 29.786 60.4179 29.5315 60.2383 29.202C60.0586 28.8651 59.9687 28.4721 59.9687 28.0229V26.0463L59.5532 26.1025C59.3286 26.1324 59.1302 26.0538 58.958 25.8666C58.7858 25.6795 58.6997 25.4436 58.6997 25.1591C58.6997 24.8746 58.7858 24.6425 58.958 24.4629C59.1302 24.2757 59.3286 24.1971 59.5532 24.227L59.9687 24.2832L59.9575 23.5195C59.95 23.22 60.0361 22.9842 60.2158 22.812C60.3955 22.6323 60.6575 22.5425 61.0019 22.5425C61.3463 22.5425 61.6121 22.6323 61.7993 22.812C61.9864 22.9842 62.0725 23.22 62.0576 23.5195L62.0351 24.2832L62.6303 24.2046C63.0346 24.1447 63.3416 24.2195 63.5512 24.4292C63.7608 24.6313 63.8657 24.8746 63.8657 25.1591C63.8657 25.4436 63.7608 25.6907 63.5512 25.9003C63.3491 26.1025 63.0533 26.1773 62.664 26.1249L62.0351 26.0463V27.7196C62.0351 27.817 62.0688 27.9068 62.1362 27.9892C62.2036 28.064 62.2859 28.0865 62.3833 28.0566C62.4956 28.0266 62.6116 27.963 62.7314 27.8656C62.8587 27.7683 63.0196 27.7196 63.2143 27.7196C63.5063 27.7196 63.7309 27.8245 63.8881 28.0341C64.0453 28.2437 64.1239 28.502 64.1239 28.809C64.1239 29.0486 64.0378 29.2807 63.8657 29.5053C63.7009 29.7224 63.4651 29.8983 63.1581 30.0331C62.8512 30.1678 62.4843 30.2352 62.0576 30.2352ZM67.3248 30.2015C66.8382 30.2015 66.4227 30.0593 66.0783 29.7748C65.7339 29.4903 65.4494 29.0186 65.2248 28.3598L64.3376 25.7993C64.2178 25.4624 64.2178 25.1516 64.3376 24.8671C64.4649 24.5826 64.697 24.403 65.0339 24.3281C65.3333 24.2607 65.5954 24.2907 65.82 24.4179C66.0521 24.5452 66.2168 24.7586 66.3141 25.0581L67.1901 27.6298C67.2949 27.9293 67.4222 28.1501 67.5719 28.2924C67.7291 28.4346 67.9201 28.4683 68.1447 28.3935C68.3543 28.3111 68.4666 28.1763 68.4816 27.9892C68.504 27.7945 68.4628 27.5699 68.358 27.3154C68.2682 27.0833 68.1484 26.8849 67.9987 26.7201C67.8489 26.5554 67.7142 26.3832 67.5944 26.2036C67.4746 26.0239 67.4147 25.7993 67.4147 25.5297C67.4147 25.1404 67.5382 24.8372 67.7853 24.6201C68.0398 24.3955 68.373 24.2907 68.7848 24.3056C69.1367 24.3131 69.4249 24.4367 69.6495 24.6762C69.8741 24.9158 69.9864 25.219 69.9864 25.5859C69.9864 25.788 69.9527 26.0052 69.8854 26.2372C69.818 26.4693 69.7431 26.7127 69.6607 26.9672L69.2115 28.3822C69.0917 28.7566 68.957 29.0823 68.8072 29.3593C68.665 29.6288 68.4778 29.8384 68.2457 29.9882C68.0211 30.1304 67.7142 30.2015 67.3248 30.2015Z" fill="white"/>
<path d="M-2.10253e-05 33.5066L3.88959 10.7866L10.1632 9.90492C14.241 9.33182 16.029 11.2979 15.3075 15.5172L14.7115 19.0853C13.99 23.3046 11.4179 25.8834 7.34006 26.4565L6.7127 26.5447L5.64619 32.713L-2.10253e-05 33.5066ZM8.15562 21.5905C8.50067 21.542 8.84572 21.2084 8.90845 20.8511L9.84949 15.334C9.91222 14.9767 9.66128 14.7269 9.31623 14.7754L8.68888 14.8635L7.52827 21.6786L8.15562 21.5905ZM13.6928 31.5822L17.5824 8.86222L23.2286 8.0687L21.6916 16.9956L22.9463 16.8193L24.4833 7.89236L30.1295 7.09883L26.2399 29.8188L20.5937 30.6123L22.1307 21.6853L20.876 21.8617L19.339 30.7886L13.6928 31.5822ZM33.6241 29.0978C29.5463 29.6709 27.727 27.7092 28.4484 23.4899L30.205 13.1067C30.9265 8.8874 33.4986 6.30858 37.5765 5.73548C41.6543 5.16237 43.4736 7.12401 42.7522 11.3433L40.9956 21.7265C40.2741 25.9458 37.7019 28.5247 33.6241 29.0978ZM33.9064 23.6731C33.8751 24.026 34.0946 24.2802 34.4397 24.2317C34.7847 24.1832 35.1298 23.8496 35.1611 23.4968L37.2942 11.1601C37.3255 10.8072 37.1059 10.553 36.7609 10.6015C36.4159 10.65 36.0708 10.9836 36.0394 11.3364L33.9064 23.6731ZM50.2072 31.5186C46.9136 31.9815 45.1256 30.8073 45.0628 27.2684C42.4593 26.9374 41.3614 25.0011 41.9574 21.5914L43.714 11.2081C44.4355 6.98883 47.039 4.4056 51.1168 3.8325C55.1947 3.2594 56.9826 5.22544 56.2612 9.44474L54.5046 19.828C53.9713 22.9755 52.4029 25.1915 49.9562 26.3906C50.1758 26.6132 50.5209 26.7231 51.0541 26.6481L53.093 26.3616L52.2461 31.232L50.2072 31.5186ZM47.4468 21.7702C47.3841 22.1274 47.6036 22.3816 47.9487 22.3331C48.2937 22.2847 48.6388 21.9511 48.7015 21.5938L50.8032 9.26153C50.8659 8.90427 50.615 8.65446 50.2699 8.70295C49.9249 8.75144 49.6112 9.08061 49.5485 9.43786L47.4468 21.7702Z" fill="white"/>
</svg>
