<svg width="512" height="512" viewBox="0 0 512 512" fill="none" xmlns="http://www.w3.org/2000/svg">
<g clip-path="url(#clip0_1312_82)">
<path d="M408.4 103.8C375.9 71.3998 341.3 92.3998 319.6 114L114.8 318.8C93.1 340.5 70.3999 373.5 104.6 407.6C138.7 441.7 171.6 419 193.3 397.3L398.1 192.5C419.8 170.9 440.8 136.2 408.4 103.8ZM212.7 95.3998L256.1 138.8L300.2 94.5998C303.2 91.5998 306.2 88.7998 309.3 86.1998C304.7 62.8998 291.4 41.7998 256 41.7998C220.6 41.7998 207.3 62.9998 202.8 86.2998C206.1 89.1998 209.4 92.0998 212.7 95.3998ZM300.2 417.5L256.1 373.4L212.7 416.7C209.4 420 206.2 423.1 202.9 425.9C207.9 449.7 221.9 471.4 256 471.4C290.2 471.4 304.3 449.5 309.2 425.7C306.2 423.1 303.2 420.5 300.2 417.5ZM194.3 200.5H110.7C80 200.5 40.7 210.2 40.7 256C40.7 290.3 62.6 304.3 86.5 309.2C89.3 306 194.3 200.5 194.3 200.5ZM425.8 202.8C423.2 205.8 317.9 311.6 317.9 311.6H400.3C431 311.6 470.3 304.3 470.3 256C470.3 220.7 449.2 207.4 425.8 202.8ZM221.7 173.1L236.6 158.2L193.3 114.8C171.6 93.0998 138.7 70.3998 104.5 104.6C79.5 129.6 85.1 154 98.3 173.7C102.4 173.4 221.7 173.1 221.7 173.1ZM290.4 339L275.4 354L319.6 398.1C341.3 419.8 375.9 440.8 408.3 408.4C432.5 384.2 427 358.7 413.6 338.4C409.3 338.7 290.4 339 290.4 339Z" fill="#411FEB"/>
</g>
<defs>
<clipPath id="clip0_1312_82">
<rect width="512" height="512" fill="white"/>
</clipPath>
</defs>
</svg>
