<svg width="261" height="60" viewBox="0 0 261 60" fill="none" xmlns="http://www.w3.org/2000/svg">
<g clip-path="url(#clip0_1321_2078)">
<mask id="mask0_1321_2078" style="mask-type:luminance" maskUnits="userSpaceOnUse" x="0" y="0" width="261" height="60">
<path d="M261 0H0V60H261V0Z" fill="white"/>
</mask>
<g mask="url(#mask0_1321_2078)">
<path d="M0.0065918 5.0293L26.6873 10.711V17.0512L23.0333 21.9904L0.0065918 5.0293Z" fill="white"/>
<path d="M62.1769 39.7021C63.5037 33.6395 63.3043 27.3471 61.5962 21.3787C58.7578 11.2872 45.4664 6.94843 36.1095 8.22681L33.4995 5.47636C33.4995 5.47636 53.3681 -9.12174 66.0201 9.35023C78.6721 27.8223 62.1769 39.7021 62.1769 39.7021Z" fill="white"/>
<path d="M59.2078 22.9072C54.81 7.96699 35.3394 10.8401 35.3394 10.8401L29.2254 5.0293V17.0125L19.203 35.3166C19.203 35.3166 17.7871 37.4859 17.7871 43.5744H23.6596C23.6596 43.5744 25.3496 34.9099 35.124 35.6459C41.649 35.0712 42.954 28.4599 42.954 28.4599C42.954 28.4599 48.4611 33.8704 42.1384 37.2277C35.8157 40.5851 27.555 41.5536 27.555 59.9998C27.555 59.9998 40.1352 44.1684 55.6125 43.9747C55.6647 43.9747 63.5991 37.8475 59.2078 22.9072ZM30.537 26.355C30.2221 26.355 29.9142 26.2627 29.6524 26.0895C29.3906 25.9164 29.1865 25.6704 29.0661 25.3825C28.9455 25.0946 28.9141 24.7779 28.9754 24.4723C29.0369 24.1667 29.1885 23.886 29.4111 23.6657C29.6339 23.4454 29.9175 23.2953 30.2264 23.2345C30.5351 23.1737 30.8554 23.2049 31.1463 23.3242C31.4371 23.4435 31.6858 23.6454 31.8608 23.9044C32.0358 24.1635 32.1291 24.468 32.1291 24.7796C32.13 24.9868 32.0894 25.1919 32.0097 25.3836C31.9299 25.575 31.8127 25.749 31.6646 25.8955C31.5166 26.042 31.3408 26.1579 31.1473 26.2369C30.9536 26.3158 30.7463 26.3559 30.537 26.355Z" fill="white"/>
<path d="M90.5344 27.0267C90.5344 30.3883 89.5687 32.9709 87.6373 34.7744C85.7059 36.5779 82.9132 37.4689 79.2592 37.4474H73.3867V17.0127H79.866C83.2329 17.0127 85.8429 17.8929 87.696 19.6533C89.5491 21.4138 90.4953 23.8716 90.5344 27.0267ZM85.9669 27.1364C85.9669 22.7546 84.0094 20.5616 80.0944 20.5573H77.765V33.8576H79.6442C83.8767 33.8576 85.993 31.6107 85.993 27.1171L85.9669 27.1364Z" fill="white"/>
<path d="M93.425 17.7821C93.425 16.3939 94.2015 15.7031 95.7675 15.7031C97.3335 15.7031 98.11 16.3939 98.11 17.7821C98.1268 18.0657 98.0833 18.3495 97.982 18.6153C97.8808 18.8812 97.7244 19.123 97.5228 19.3252C97.0318 19.7265 96.4024 19.9233 95.7675 19.8739C94.2015 19.8739 93.425 19.1766 93.425 17.7821ZM97.9143 37.4484H93.6078V21.8174H97.9143V37.4484Z" fill="white"/>
<path d="M115.349 37.4479C115.349 39.6882 114.697 41.3928 113.392 42.5485C112.087 43.7042 110.129 44.2917 107.486 44.2917C105.489 44.3363 103.499 44.0235 101.614 43.3685V39.9723C103.562 40.7804 105.655 41.1889 107.767 41.1732C109.977 41.1732 111.082 39.9918 111.082 37.6287V37.3188L111.212 35.3818H111.082C110.611 36.1248 109.949 36.7301 109.164 37.1352C108.378 37.5405 107.497 37.7308 106.612 37.6867C105.754 37.7225 104.9 37.5423 104.131 37.1629C103.362 36.7835 102.702 36.2174 102.214 35.5173C101.17 34.0776 100.655 32.1148 100.655 29.6291C100.655 27.1433 101.19 25.0708 102.273 23.644C102.778 22.9502 103.448 22.3913 104.225 22.0171C105.002 21.643 105.86 21.4655 106.723 21.5004C107.617 21.4722 108.504 21.6667 109.302 22.0661C110.1 22.4655 110.784 23.0569 111.291 23.786H111.401L111.754 21.7909H115.395L115.349 37.4479ZM108.093 34.3617C108.557 34.4072 109.026 34.3412 109.459 34.1692C109.891 33.9972 110.276 33.7244 110.579 33.3739C111.084 32.7239 111.334 31.6608 111.33 30.1844V29.7001C111.33 28.0343 111.069 26.8356 110.547 26.1038C110.253 25.7273 109.869 25.4295 109.429 25.2378C108.989 25.046 108.507 24.9665 108.028 25.0062C106.005 25.0062 104.994 26.5794 104.994 29.7259C104.911 30.9408 105.171 32.1545 105.744 33.2318C105.999 33.6101 106.351 33.9149 106.763 34.1157C107.176 34.3163 107.635 34.4056 108.093 34.3746V34.3617Z" fill="white"/>
<path d="M118.801 17.7821C118.801 16.3961 119.584 15.7031 121.15 15.7031C122.716 15.7031 123.497 16.3961 123.492 17.7821C123.509 18.0657 123.465 18.3495 123.364 18.6153C123.263 18.8812 123.107 19.123 122.905 19.3252C122.413 19.7253 121.785 19.922 121.15 19.8739C119.584 19.8739 118.801 19.1766 118.801 17.7821ZM123.323 37.4484H119.023V21.8174H123.323V37.4484Z" fill="white"/>
<path d="M133.593 34.3179C134.515 34.289 135.428 34.1236 136.301 33.8272V36.9974C135.048 37.5085 133.701 37.7527 132.347 37.714C130.607 37.714 129.354 37.2836 128.588 36.4227C127.822 35.5619 127.429 34.2706 127.407 32.5488V25.0141H125.345V23.245L127.72 21.8247L128.96 18.5254H131.714V21.8506H136.131V25.0787H131.714V32.5424C131.693 32.7901 131.728 33.0395 131.817 33.272C131.905 33.5044 132.046 33.714 132.229 33.8854C132.615 34.1898 133.1 34.3437 133.593 34.3179Z" fill="white"/>
<path d="M148.646 37.4462L147.811 35.3221H147.7C147.111 36.112 146.345 36.7553 145.462 37.2009C144.51 37.5834 143.487 37.7617 142.46 37.7239C141.808 37.7577 141.154 37.6608 140.539 37.4389C139.925 37.2171 139.362 36.8748 138.885 36.4326C138.428 35.9417 138.077 35.364 137.852 34.7347C137.628 34.1054 137.535 33.4376 137.58 32.7717C137.529 32.0627 137.663 31.3523 137.97 30.7098C138.278 30.0673 138.748 29.5144 139.335 29.1045C140.509 28.3168 142.271 27.8842 144.633 27.8132L147.374 27.7292V27.0255C147.374 25.4415 146.555 24.6495 144.92 24.6495C143.374 24.72 141.86 25.1045 140.47 25.7794L139.048 22.9063C140.914 21.9515 142.989 21.4659 145.09 21.4922C147.204 21.4922 148.826 21.9485 149.958 22.861C151.086 23.7778 151.648 25.1595 151.648 27.0255V37.4462H148.646ZM147.374 30.2085L145.71 30.2666C144.735 30.2246 143.767 30.4479 142.911 30.9122C142.609 31.1208 142.366 31.4024 142.206 31.7303C142.047 32.0582 141.975 32.4212 141.997 32.7846C141.997 33.9855 142.689 34.5861 144.085 34.5861C144.521 34.6071 144.957 34.5426 145.368 34.3964C145.779 34.2501 146.157 34.0249 146.48 33.7338C146.78 33.4401 147.016 33.0872 147.17 32.6979C147.324 32.3085 147.393 31.8917 147.374 31.474V30.2085Z" fill="white"/>
<path d="M159.523 37.4484H155.217V15.7031H159.523V37.4484Z" fill="white"/>
<path d="M179.438 17.0127V30.2226C179.494 31.2345 179.332 32.2466 178.964 33.1925C178.596 34.1383 178.031 34.9964 177.304 35.7107C175.881 37.0493 173.911 37.7163 171.392 37.712C168.874 37.7077 166.94 37.0342 165.591 35.6912C164.212 34.3483 163.526 32.5082 163.53 30.171V17.0127H166.14V30.2548C166.094 30.957 166.19 31.6608 166.423 32.3259C166.654 32.9908 167.018 33.6036 167.49 34.1287C168.345 35.0327 169.722 35.5104 171.529 35.5104C172.24 35.5548 172.953 35.4576 173.625 35.2248C174.298 34.9918 174.916 34.6279 175.444 34.1546C175.932 33.6263 176.307 33.0053 176.544 32.3294C176.782 31.6533 176.878 30.9366 176.828 30.2226V17.0127H179.438Z" fill="white"/>
<path d="M194.191 37.4489V27.6286C194.269 26.6278 193.969 25.6337 193.349 24.8394C193.003 24.5151 192.592 24.2664 192.142 24.1096C191.692 23.9527 191.214 23.8912 190.739 23.9291C189.147 23.9291 187.989 24.3595 187.268 25.2204C186.55 26.0919 186.191 27.506 186.191 29.4752V37.4489H183.653V22.0954H185.695L186.08 24.1937H186.217C186.708 23.4291 187.41 22.8197 188.24 22.4377C189.132 22.0097 190.112 21.7889 191.104 21.792C193 21.792 194.412 22.2483 195.339 23.1607C196.266 24.0732 196.726 25.4936 196.722 27.422V37.4489H194.191Z" fill="white"/>
<path d="M200.435 17.9484C200.405 17.7422 200.423 17.5319 200.486 17.3331C200.549 17.1343 200.656 16.9519 200.799 16.7991C200.941 16.6464 201.118 16.5272 201.313 16.4501C201.509 16.373 201.719 16.34 201.929 16.3536C202.31 16.3483 202.681 16.4843 202.967 16.7346C203.127 16.8913 203.251 17.0818 203.327 17.2918C203.404 17.5018 203.433 17.7261 203.41 17.9484C203.431 18.1705 203.401 18.3943 203.324 18.6041C203.249 18.8138 203.126 19.0043 202.967 19.1622C202.677 19.4159 202.304 19.556 201.916 19.556C201.529 19.556 201.155 19.4159 200.866 19.1622C200.712 19.0015 200.593 18.8102 200.519 18.6009C200.444 18.3917 200.415 18.1693 200.435 17.9484ZM203.176 37.4469H200.631V22.0935H203.176V37.4469Z" fill="white"/>
<path d="M213.426 37.7106C212.459 37.7676 211.491 37.6152 210.589 37.2639C209.687 36.9126 208.874 36.3709 208.206 35.6768C206.967 34.3209 206.347 32.3839 206.347 29.8659C206.347 27.348 206.977 25.3551 208.239 23.8873C209.496 22.497 211.286 21.8018 213.609 21.8018C214.361 21.8015 215.111 21.8794 215.847 22.0342C216.48 22.1507 217.095 22.3505 217.674 22.6282L216.898 24.7201C215.835 24.2869 214.705 24.0422 213.557 23.997C212.904 23.9451 212.248 24.0508 211.646 24.3049C211.043 24.5591 210.512 24.9541 210.099 25.4562C209.355 26.4246 208.983 27.8752 208.983 29.8078C208.983 31.663 209.355 33.0792 210.099 34.0562C210.485 34.5498 210.989 34.9422 211.564 35.1988C212.14 35.4554 212.77 35.5685 213.4 35.5283C214.79 35.5232 216.162 35.2192 217.42 34.6373V36.8713C216.176 37.4633 214.806 37.7512 213.426 37.7106Z" fill="white"/>
<path d="M233.693 29.7374C233.693 32.2425 233.053 34.1965 231.775 35.5997C231.097 36.313 230.272 36.8714 229.355 37.2361C228.438 37.6007 227.451 37.7627 226.463 37.7111C225.154 37.7367 223.862 37.399 222.737 36.7361C221.644 36.075 220.773 35.1062 220.238 33.9534C219.633 32.6301 219.334 31.1896 219.364 29.7374C219.364 27.2365 219.994 25.2996 221.256 23.9265C222.518 22.5534 224.286 21.8583 226.561 21.8411C227.536 21.7931 228.509 21.9593 229.412 22.3276C230.314 22.6961 231.123 23.2575 231.781 23.9716C233.056 25.3748 233.693 27.2968 233.693 29.7374ZM221.994 29.7374C221.994 31.6743 222.372 33.127 223.142 34.1277C223.57 34.5947 224.092 34.9681 224.675 35.2236C225.257 35.479 225.888 35.611 226.525 35.611C227.163 35.611 227.793 35.479 228.375 35.2236C228.958 34.9681 229.48 34.5947 229.908 34.1277C230.678 33.129 231.063 31.6657 231.063 29.7374C231.063 27.809 230.676 26.3584 229.902 25.3857C229.492 24.8927 228.969 24.5034 228.376 24.2497C227.784 23.996 227.139 23.8853 226.496 23.9265C223.488 23.9265 221.994 25.8634 221.994 29.7374Z" fill="white"/>
<path d="M244.074 21.8178C244.685 21.8118 245.296 21.868 245.895 21.9857L245.581 24.3035C245.032 24.1773 244.47 24.1123 243.905 24.1098C243.098 24.0966 242.305 24.3214 241.627 24.7555C240.917 25.2086 240.348 25.8479 239.983 26.602C239.58 27.4175 239.376 28.3156 239.389 29.2234V37.449H236.858V22.0954H238.946L239.233 24.904H239.344C239.846 23.985 240.559 23.1955 241.425 22.599C242.209 22.0835 243.132 21.8114 244.074 21.8178Z" fill="white"/>
<path d="M258.481 37.4489V27.6286C258.56 26.6278 258.26 25.6337 257.64 24.8394C257.294 24.5154 256.881 24.2669 256.433 24.1101C255.982 23.9533 255.505 23.8916 255.03 23.9291C253.442 23.9291 252.287 24.3595 251.565 25.2204C250.847 26.0919 250.488 27.506 250.488 29.4752V37.4489H247.95V22.0954H249.999L250.384 24.1937H250.521C251.012 23.4291 251.714 22.8197 252.544 22.4377C253.436 22.0097 254.416 21.7889 255.408 21.792C257.31 21.792 258.72 22.2483 259.643 23.1607C260.566 24.0732 261.026 25.4936 261.026 27.422V37.4489H258.481Z" fill="white"/>
</g>
</g>
<defs>
<clipPath id="clip0_1321_2078">
<rect width="261" height="60" fill="white"/>
</clipPath>
</defs>
</svg>
