<svg width="133" height="32" viewBox="0 0 133 32" fill="none" xmlns="http://www.w3.org/2000/svg">
<mask id="mask0_1267_1860" style="mask-type:luminance" maskUnits="userSpaceOnUse" x="0" y="0" width="133" height="32">
<path d="M132.923 0H0V32H132.923V0Z" fill="white"/>
</mask>
<g mask="url(#mask0_1267_1860)">
<path d="M21.3355 7.06909H7.97398V12.5152H14.9047V15.7383C14.9047 18.046 13.5836 19.1999 10.9432 19.1999C8.3009 19.1999 6.98167 18.046 6.98167 15.7383H0.543213C0.543213 18.5749 1.4086 20.7595 3.14321 22.2922C4.94321 23.8614 7.54321 24.646 10.9432 24.646C14.3432 24.646 16.9432 23.8614 18.7432 22.2922C20.4701 20.7595 21.3355 18.5749 21.3355 15.7383V7.06909Z" fill="white"/>
<path d="M33.9704 19.1999C30.8319 19.1999 29.2627 18.0461 29.2627 15.7384C29.2627 13.4268 30.8319 12.2692 33.9704 12.2692C37.1031 12.2692 38.6704 13.4268 38.6704 15.7384C38.6704 18.0461 37.1031 19.1999 33.9704 19.1999ZM33.9704 6.823C30.3184 6.823 27.5358 7.60761 25.6242 9.17684C23.7569 10.7115 22.8242 12.898 22.8242 15.7384C22.8242 18.5749 23.7569 20.7595 25.6242 22.2922C27.5358 23.8615 30.3184 24.6461 33.9704 24.6461C37.6165 24.6461 40.3954 23.8615 42.3088 22.2922C44.1742 20.7595 45.1088 18.5749 45.1088 15.7384C45.1088 12.898 44.1742 10.7115 42.3088 9.17684C40.3954 7.60761 37.6165 6.823 33.9704 6.823Z" fill="white"/>
<path d="M53.4054 17.9614H59.1669C59.9458 17.9614 60.3361 18.2518 60.3361 18.8306C60.3361 19.4114 59.9458 19.6999 59.1669 19.6999H53.4054V17.9614ZM53.4054 11.7768H58.4285C59.2015 11.7768 59.59 12.0652 59.59 12.6383C59.59 13.2191 59.2015 13.5076 58.4285 13.5076H53.4054V11.7768ZM61.0515 24.3999C62.9169 24.3999 64.3458 23.996 65.3361 23.1845C66.29 22.396 66.7669 21.2749 66.7669 19.8229C66.7669 17.5268 65.6208 16.0902 63.3285 15.5152C65.1285 14.8383 66.0285 13.5114 66.0285 11.5306C66.0285 10.1114 65.5669 9.02101 64.6438 8.2614C63.6842 7.46717 62.29 7.06909 60.4592 7.06909H46.9669V24.3999H61.0515Z" fill="white"/>
<path d="M75.0682 17.9614H80.8298C81.6086 17.9614 81.999 18.2518 81.999 18.8306C81.999 19.4114 81.6086 19.6999 80.8298 19.6999H75.0682V17.9614ZM75.0682 11.7768H80.0913C80.8644 11.7768 81.2528 12.0652 81.2528 12.6383C81.2528 13.2191 80.8644 13.5076 80.0913 13.5076H75.0682V11.7768ZM82.7144 24.3999C84.5798 24.3999 86.0086 23.996 86.999 23.1845C87.9528 22.396 88.4298 21.2749 88.4298 19.8229C88.4298 17.5268 87.2836 16.0902 84.9913 15.5152C86.7913 14.8383 87.6913 13.5114 87.6913 11.5306C87.6913 10.1114 87.2298 9.02101 86.3067 8.2614C85.3471 7.46717 83.9528 7.06909 82.1221 7.06909H68.6298V24.3999H82.7144Z" fill="white"/>
<path d="M96.7309 12.5152H101.977C103.1 12.5152 103.662 12.9287 103.662 13.7537C103.662 14.5806 103.1 14.9922 101.977 14.9922H96.7309V12.5152ZM96.7309 20.4383H100.762L103.408 24.3999H110.092L106.777 19.446C108.987 18.3441 110.092 16.446 110.092 13.7537C110.092 11.6268 109.392 9.99217 107.992 8.85371C106.556 7.66525 104.477 7.06909 101.754 7.06909H90.2925V24.3999H96.7309V20.4383Z" fill="white"/>
<path d="M118.394 12.5152H123.64C124.763 12.5152 125.325 12.9287 125.325 13.7537C125.325 14.5806 124.763 14.9922 123.64 14.9922H118.394V12.5152ZM118.394 20.4383H122.425L125.071 24.3999H131.755L128.44 19.446C130.65 18.3441 131.755 16.446 131.755 13.7537C131.755 11.6268 131.055 9.99217 129.655 8.85371C128.219 7.66525 126.14 7.06909 123.417 7.06909H111.955V24.3999H118.394V20.4383Z" fill="white"/>
</g>
</svg>
