<svg width="410" height="109" viewBox="0 0 410 109" fill="none" xmlns="http://www.w3.org/2000/svg">
<path d="M366.1 11.9758C366.173 11.9757 366.246 11.9757 366.321 11.9756C369.546 11.9803 372.659 12.5057 375.745 13.4256C375.95 13.486 376.155 13.5431 376.361 13.5992C378.704 14.2564 381.044 15.3851 383.033 16.7844C383.292 16.9652 383.556 17.139 383.819 17.3133C383.915 17.3775 384.011 17.4417 384.11 17.5078C384.308 17.6395 384.506 17.7702 384.706 17.9C386.042 18.7749 386.042 18.7749 386.6 19.3008C386.6 19.3668 386.6 19.4328 386.6 19.5008C386.732 19.5668 386.864 19.6328 387 19.7008C387 19.7668 387 19.8328 387 19.9008C387.056 19.924 387.111 19.9473 387.169 19.9712C387.46 20.1344 387.66 20.337 387.896 20.5734C387.966 20.6434 387.966 20.6434 388.037 20.7148C388.135 20.8136 388.234 20.9126 388.332 21.0119C388.479 21.1612 388.627 21.3098 388.776 21.4582C389.251 21.935 389.716 22.417 390.153 22.9292C390.312 23.1152 390.478 23.2954 390.644 23.4758C391.036 23.9253 391.355 24.4155 391.679 24.9155C391.866 25.2024 392.057 25.4866 392.248 25.7712C392.456 26.0807 392.661 26.3911 392.867 26.7015C392.974 26.8616 393.082 27.0208 393.19 27.1797C395.58 30.7676 396.902 35.1602 397.5 39.4008C397.512 39.4845 397.524 39.5683 397.537 39.6546C398.175 44.1464 397.72 48.7474 396.5 53.1008C396.457 53.2569 396.457 53.2569 396.413 53.4162C395.439 56.9014 393.755 60.0717 391.8 63.1008C391.761 63.1615 391.722 63.2222 391.683 63.2848C390.979 64.3853 390.193 65.4151 389.307 66.375C389.122 66.5773 388.945 66.7843 388.769 66.9945C388.429 67.3848 388.052 67.7287 387.667 68.0735C387.324 68.3826 387.001 68.7041 386.681 69.0383C385.985 69.7413 385.197 70.3183 384.4 70.9008C384.344 70.9423 384.288 70.9838 384.231 71.0265C383.286 71.725 382.27 72.2951 381.245 72.8645C381.037 72.9804 380.83 73.098 380.623 73.2164C376.859 75.3156 372.283 76.5611 367.988 76.8288C367.237 76.8814 366.53 77.0359 365.937 77.5258C365.863 77.587 365.788 77.6483 365.712 77.7113C365.516 77.8866 365.332 78.0677 365.15 78.257C364.292 79.1393 363.264 79.5809 362.037 79.6258C360.766 79.6048 359.745 79.1213 358.812 78.2695C358.109 77.5189 357.749 76.4936 357.775 75.4742C357.907 74.0059 358.59 72.8123 359.694 71.8633C362.339 69.7738 365.887 69.1968 369.112 68.5445C369.208 68.5251 369.304 68.5057 369.403 68.4857C369.595 68.4469 369.786 68.4081 369.978 68.3694C370.418 68.2801 370.859 68.1906 371.3 68.1008C371.369 68.0866 371.439 68.0725 371.511 68.0579C374.371 67.4723 377.097 66.346 379.411 64.5464C379.612 64.3913 379.816 64.2399 380.02 64.0891C381.043 63.3348 381.043 63.3348 382 62.5008C382.056 62.4483 382.113 62.3959 382.171 62.3418C383.074 61.4739 383.815 60.4377 384.582 59.4509C384.676 59.3309 384.772 59.2121 384.868 59.0938C385.429 58.3873 385.855 57.5826 386.3 56.8008C386.335 56.7406 386.37 56.6805 386.405 56.6185C388.208 53.491 389.273 49.9706 389.7 46.4008C389.713 46.2972 389.726 46.1935 389.74 46.0867C390.173 42.0344 389.325 37.8782 387.715 34.1679C387.605 33.9115 387.499 33.6537 387.395 33.3949C386.395 30.9767 384.701 28.8771 382.9 27.0008C382.851 26.9495 382.803 26.8982 382.753 26.8453C381.995 26.0471 381.184 25.3557 380.3 24.7008C380.242 24.6577 380.184 24.6147 380.124 24.5703C379.776 24.3141 379.425 24.0643 379.07 23.819C378.909 23.7071 378.75 23.5921 378.592 23.477C377.456 22.6894 376.178 22.2094 374.9 21.7008C374.813 21.6654 374.726 21.6301 374.637 21.5936C368.803 19.2248 362.296 19.6182 356.549 22.0051C353.85 23.1504 351.598 24.6955 349.448 26.675C349.236 26.8682 349.02 27.0538 348.8 27.2383C347.907 28.0174 347.171 28.929 346.5 29.9008C346.42 30.0131 346.339 30.1253 346.259 30.2375C343.828 33.6602 342.245 37.0726 341.5 41.2008C341.485 41.2801 341.47 41.3593 341.455 41.441C341.045 43.7117 341.192 46.2435 341.6 48.5008C341.616 48.5893 341.632 48.6779 341.648 48.7691C341.941 50.3661 342.393 51.867 342.937 53.3945C345.87 61.6833 345.87 61.6833 344.346 64.9293C343.774 65.9855 343.026 66.75 341.9 67.2008C340.665 67.5445 339.588 67.3743 338.469 66.7703C338.08 66.5255 337.787 66.2582 337.5 65.9008C337.42 65.8024 337.42 65.8024 337.339 65.702C336.596 64.6937 336.379 63.5319 336.5 62.3008C336.545 62.0831 336.595 61.8663 336.65 61.6508C336.96 60.4256 336.833 59.5259 336.3 58.4008C334.419 54.0752 333.174 49.5046 333.181 44.7633C333.181 44.6589 333.181 44.6589 333.181 44.5524C333.193 39.4159 334.516 34.4975 337.014 30.0176C337.181 29.7182 337.344 29.4184 337.498 29.1121C338.387 27.3562 339.54 25.7106 340.8 24.2008C340.844 24.1472 340.888 24.0936 340.934 24.0384C342.174 22.5324 343.5 21.0528 345 19.8008C345.05 19.7578 345.1 19.7149 345.151 19.6707C346.897 18.1731 348.838 16.9382 350.853 15.8362C351.093 15.7044 351.333 15.5704 351.572 15.4363C355.905 13.0438 361.184 11.9799 366.1 11.9758Z" fill="white"/>
<path d="M13.3501 14.8819C13.5011 14.8819 13.5011 14.8819 13.6552 14.8819C15.2113 14.8832 16.7528 14.9207 18.3001 15.1006C18.3783 15.1097 18.4566 15.1188 18.5372 15.1281C19.6151 15.2581 19.6151 15.2581 19.9001 15.4006C19.9854 15.6757 20.0584 15.9465 20.126 16.226C20.1477 16.3127 20.1693 16.3995 20.1916 16.4888C20.2636 16.778 20.3344 17.0674 20.4052 17.3569C20.4552 17.5593 20.5053 17.7617 20.5554 17.964C20.6609 18.3906 20.7659 18.8174 20.8704 19.2442C21.0026 19.7841 21.136 20.3236 21.2698 20.863C21.752 22.8085 22.2327 24.7499 22.6061 26.7196C22.7352 27.3967 22.9109 28.0595 23.0876 28.7256C23.5584 30.5459 23.9577 32.3823 24.3563 34.2194C24.3726 34.2945 24.3889 34.3695 24.4057 34.4469C24.936 36.8919 25.4426 39.3408 25.9001 41.8006C25.9661 41.8006 26.0321 41.8006 26.1001 41.8006C26.1247 41.6719 26.1494 41.5431 26.1748 41.4105C26.1994 41.2817 26.1994 41.2817 26.2246 41.1504C26.2616 40.9567 26.2987 40.763 26.3358 40.5692C26.4387 40.0314 26.5418 39.4935 26.645 38.9557C26.8953 37.6535 26.8953 37.6535 27.1395 36.3503C27.7958 32.8081 28.6855 29.3162 29.5512 25.8209C29.5786 25.7099 29.5786 25.7099 29.6067 25.5967C29.6437 25.4472 29.6807 25.2977 29.7178 25.1481C30.0779 23.6938 30.4337 22.2385 30.7858 20.7822C30.8442 20.5409 30.9026 20.2997 30.9612 20.0585C31.0427 19.7229 31.1239 19.3872 31.2048 19.0514C31.23 18.9468 31.2553 18.8421 31.2813 18.7342C31.4083 18.2023 31.5295 17.6696 31.6429 17.1345C31.6655 17.0278 31.6881 16.9211 31.7114 16.8111C31.7539 16.6085 31.7956 16.4058 31.8366 16.2029C31.8553 16.1133 31.8739 16.0238 31.8932 15.9315C31.9091 15.8528 31.925 15.7741 31.9414 15.693C32.0001 15.5006 32.0001 15.5006 32.2001 15.3006C32.4161 15.252 32.4161 15.252 32.6849 15.219C32.7848 15.2066 32.8848 15.1941 32.9878 15.1813C33.0929 15.1691 33.198 15.1569 33.3063 15.1444C33.4057 15.1318 33.505 15.1193 33.6073 15.1063C35.2251 14.9109 36.8413 14.8803 38.4688 14.8819C38.6157 14.8819 38.6157 14.8819 38.7655 14.8819C44.2722 14.8867 44.2722 14.8867 45.3001 15.4006C45.3408 15.612 45.3408 15.612 45.3634 15.8975C45.3724 16.0058 45.3814 16.1142 45.3907 16.2258C45.3998 16.3463 45.4088 16.4669 45.4181 16.5911C45.4336 16.7816 45.4336 16.7816 45.4493 16.9759C45.478 17.3303 45.5055 17.6848 45.5329 18.0394C45.5625 18.4215 45.5933 18.8036 45.6239 19.1857C45.677 19.8503 45.7294 20.5149 45.7814 21.1796C45.8572 22.1503 45.9341 23.1208 46.0113 24.0913C46.1375 25.6785 46.2628 27.2657 46.3876 28.853C46.5071 30.3734 46.627 31.8937 46.7474 33.414C46.7548 33.5065 46.7621 33.5989 46.7696 33.6942C46.8065 34.1591 46.8433 34.624 46.8801 35.0889C46.953 36.0079 47.0258 36.9269 47.0985 37.8459C47.1057 37.9359 47.1128 38.0259 47.1201 38.1187C47.2267 39.4644 47.3329 40.8101 47.4389 42.1559C47.4527 42.331 47.4665 42.5061 47.4803 42.6811C47.5007 42.9404 47.5211 43.1997 47.5415 43.459C47.5616 43.7141 47.5817 43.9691 47.6018 44.2241C47.6084 44.3074 47.6149 44.3906 47.6217 44.4764C47.7836 46.5316 47.9464 48.5867 48.1122 50.6417C48.1388 50.9703 48.1652 51.299 48.1917 51.6276C48.2082 51.8331 48.2247 52.0386 48.2413 52.2441C48.2491 52.3417 48.257 52.4392 48.2651 52.5398C48.3092 53.0869 48.3536 53.634 48.3984 54.181C48.4246 54.5013 48.4504 54.8216 48.4761 55.1419C48.4876 55.2836 48.4992 55.4253 48.511 55.567C48.5758 56.3469 48.6155 57.118 48.6001 57.9006C47.5939 58.3151 46.4887 58.3518 45.4126 58.4194C45.3442 58.4237 45.2757 58.4281 45.2052 58.4325C40.2683 58.7348 40.2683 58.7348 39.0001 58.1006C38.8893 56.1527 38.7789 54.2047 38.6688 52.2567C38.6176 51.3512 38.5663 50.4456 38.5148 49.5401C38.2959 45.6926 38.0825 41.8449 37.8896 37.996C37.8769 37.7429 37.8642 37.4899 37.8514 37.2368C37.7738 35.6938 37.6984 34.1507 37.6397 32.6068C37.6336 32.4513 37.6336 32.4513 37.6275 32.2927C37.5853 31.1226 37.5891 29.9525 37.5938 28.7819C37.5943 28.5581 37.5948 28.3344 37.5952 28.1106C37.5963 27.5739 37.5979 27.0373 37.6001 26.5006C37.5011 26.5006 37.4021 26.5006 37.3001 26.5006C37.2707 26.6273 37.2707 26.6273 37.2407 26.7565C37.0686 27.4933 36.8936 28.2292 36.713 28.9639C36.6787 29.1037 36.6445 29.2435 36.6103 29.3833C36.5594 29.5909 36.5084 29.7984 36.457 30.0059C36.2418 30.8734 36.0485 31.7431 35.8704 32.619C35.5905 33.987 35.2569 35.341 34.9198 36.6958C34.8503 36.9754 34.7811 37.255 34.712 37.5346C34.1784 39.6926 33.6386 41.849 33.0988 44.0055C32.5291 46.277 32.5291 46.277 31.9678 48.5507C31.9219 48.7381 31.8757 48.9254 31.8294 49.1128C31.6213 49.97 31.4562 50.8327 31.3001 51.7006C30.8102 51.8862 30.3497 51.9612 29.8325 52.0112C29.7463 52.0196 29.66 52.028 29.5712 52.0366C28.4945 52.1311 27.4168 52.1342 26.3367 52.1322C25.9835 52.1319 25.6304 52.1343 25.2772 52.1368C23.7316 52.1408 22.2294 52.0238 20.7001 51.8006C20.6808 51.7212 20.6615 51.6417 20.6416 51.5598C20.6141 51.4466 20.5866 51.3334 20.5583 51.2168C20.5432 51.1544 20.528 51.092 20.5124 51.0277C20.4259 50.6714 20.3394 50.3151 20.2529 49.9589C20.2157 49.8058 20.1785 49.6526 20.1413 49.4995C20.1223 49.4211 20.1032 49.3426 20.0836 49.2618C19.9652 48.7744 19.8469 48.287 19.7286 47.7997C19.225 45.724 19.225 45.724 18.7185 43.6491C18.6456 43.3517 18.5728 43.0543 18.5001 42.7569C18.4742 42.6508 18.4742 42.6508 18.4477 42.5426C18.2604 41.776 18.0776 41.0085 17.9028 40.2389C17.886 40.1648 17.8691 40.0907 17.8518 40.0143C17.8347 39.939 17.8176 39.8636 17.7999 39.786C17.3611 37.8552 16.8886 35.9335 16.4063 34.0131C16.389 33.9441 16.3717 33.8751 16.3538 33.804C16.2671 33.4587 16.1804 33.1134 16.0936 32.7681C16.0767 32.7006 16.0597 32.6331 16.0422 32.5636C16.0082 32.4281 15.9742 32.2926 15.9401 32.1572C15.6448 30.9818 15.3526 29.8057 15.0649 28.6285C15.022 28.4529 14.979 28.2774 14.936 28.1019C14.8779 27.8653 14.8202 27.6287 14.7626 27.3921C14.7458 27.3237 14.729 27.2554 14.7117 27.185C14.6001 26.7237 14.6001 26.7237 14.6001 26.5006C14.5341 26.5006 14.4681 26.5006 14.4001 26.5006C14.3986 26.6068 14.3972 26.7129 14.3957 26.8223C14.3566 29.5185 14.2759 32.2126 14.1688 34.9069C14.1657 34.986 14.1626 35.0652 14.1593 35.1467C14.0523 37.8247 13.9113 40.5 13.7543 43.1754C13.651 44.9355 13.5621 46.6948 13.5001 48.4569C13.4305 50.4138 13.335 52.3688 13.2267 54.3239C13.2089 54.6447 13.1916 54.9654 13.1747 55.2862C13.1547 55.6634 13.1337 56.0405 13.1121 56.4176C13.1041 56.5578 13.0965 56.698 13.0892 56.8383C13.0792 57.031 13.0678 57.2237 13.0563 57.4163C13.0503 57.5248 13.0442 57.6334 13.038 57.7452C13.0001 58.0006 13.0001 58.0006 12.8001 58.2006C9.87926 58.8617 6.30886 58.6135 3.40009 58.0006C3.35709 56.7579 3.47272 55.5277 3.57612 54.2905C3.60909 53.8959 3.64134 53.5012 3.6734 53.1065C3.74205 52.2628 3.81165 51.4192 3.88134 50.5756C3.95565 49.6762 4.02974 48.7766 4.10284 47.8771C4.13917 47.4303 4.17631 46.9837 4.21364 46.537C4.33633 45.0447 4.43462 43.5522 4.52099 42.0573C4.67521 39.3905 4.87565 36.7288 5.09069 34.0663C5.14038 33.4497 5.1895 32.8331 5.23869 32.2165C5.3209 31.187 5.40345 30.1576 5.48628 29.1281C5.60293 27.6781 5.71895 26.2281 5.83483 24.7781C5.99044 22.8314 6.14622 20.8848 6.30275 18.9383C6.3195 18.7299 6.33623 18.5215 6.35294 18.3132C6.51467 16.2967 6.51467 16.2967 6.6001 15.4006C7.16341 15.248 7.70725 15.1511 8.2876 15.0944C8.35952 15.0866 8.43145 15.0788 8.50556 15.0708C10.1171 14.9061 11.7316 14.8804 13.3501 14.8819Z" fill="white"/>
<path d="M203.034 14.3799C203.122 14.3792 203.21 14.3785 203.3 14.3778C203.584 14.376 203.867 14.3754 204.15 14.3752C204.295 14.3751 204.295 14.3751 204.443 14.375C205.916 14.3766 207.348 14.4323 208.8 14.7002C208.887 14.7147 208.973 14.7292 209.062 14.7441C210.405 14.9721 211.686 15.3716 212.975 15.8002C213.052 15.8259 213.13 15.8516 213.21 15.8781C214.097 16.174 214.957 16.492 215.8 16.9002C215.971 16.9801 216.143 17.0599 216.314 17.1397C219.202 18.502 219.202 18.502 219.5 18.8002C219.711 20.9138 218.249 22.867 216.988 24.4151C215.724 25.9342 215.724 25.9342 215.057 26.1951C214.691 26.2023 214.519 26.0608 214.219 25.8565C213.537 25.409 212.825 25.0473 212.091 24.6938C211.964 24.6317 211.838 24.5678 211.714 24.502C211.15 24.2061 210.567 23.9994 209.962 23.8002C209.857 23.7654 209.752 23.7306 209.644 23.6947C206.394 22.6404 202.947 22.4358 199.831 24.0252C197.471 25.3572 196.078 27.7256 195.327 30.2643C194.083 34.7601 193.83 41.2385 196 45.5002C196.028 45.5581 196.056 45.6159 196.085 45.6755C196.525 46.5811 197.031 47.3418 197.7 48.1002C197.751 48.1657 197.802 48.2312 197.855 48.2986C199.024 49.7872 201.243 50.4549 203.046 50.7584C203.71 50.8342 204.382 50.8243 205.05 50.8252C205.159 50.8255 205.159 50.8255 205.27 50.8258C206.505 50.8266 207.709 50.7356 208.93 50.5391C209.319 50.4831 209.709 50.4421 210.1 50.4002C210.1 50.3169 210.099 50.2335 210.099 50.1477C210.097 49.3564 210.096 48.5651 210.095 47.7738C210.094 47.3671 210.093 46.9605 210.092 46.5538C210.091 46.1602 210.091 45.7667 210.09 45.3731C210.09 45.2241 210.09 45.0751 210.089 44.9261C210.086 43.9791 210.118 43.0438 210.2 42.1002C210.074 42.1023 209.949 42.1044 209.82 42.1066C209.347 42.1139 208.875 42.1184 208.402 42.1222C208.199 42.1242 207.996 42.1269 207.793 42.1304C206.192 42.1572 204.562 42.1632 203.307 41.0256C202.386 40.0778 202.373 38.7792 202.385 37.5264C202.398 37.066 202.431 36.6086 202.475 36.1502C202.481 36.078 202.487 36.0059 202.494 35.9315C202.548 35.4134 202.668 34.9202 202.805 34.4184C202.833 34.3145 202.833 34.3145 202.862 34.2085C202.908 34.039 202.954 33.8696 203 33.7002C204.446 33.6932 205.891 33.6879 207.337 33.6847C208.008 33.6831 208.68 33.681 209.351 33.6776C210 33.6743 210.649 33.6725 211.298 33.6717C211.545 33.6712 211.791 33.6701 212.038 33.6685C215.43 33.647 215.43 33.647 216.769 34.394C216.834 34.4274 216.898 34.4609 216.965 34.4953C218.21 35.1524 218.99 36.3742 219.4 37.7002C219.651 38.6024 219.627 39.5111 219.623 40.4385C219.623 40.6131 219.623 40.7876 219.623 40.9621C219.623 41.4333 219.622 41.9045 219.62 42.3757C219.619 42.8692 219.619 43.3626 219.619 43.856C219.618 44.7891 219.616 45.7223 219.614 46.6555C219.612 47.7184 219.611 48.7813 219.61 49.8441C219.608 52.0295 219.604 54.2149 219.6 56.4002C219.359 56.4809 219.118 56.5615 218.877 56.6421C218.809 56.6648 218.741 56.6876 218.671 56.7111C217.956 56.9498 217.234 57.1514 216.506 57.344C216.434 57.3631 216.362 57.3823 216.288 57.402C209.165 59.2831 199.668 60.4595 193.012 56.6627C191.833 55.9696 190.796 55.1378 189.8 54.2002C189.74 54.1454 189.68 54.0906 189.618 54.0342C187.6 52.1242 186.201 49.3195 185.4 46.7002C185.373 46.6116 185.345 46.523 185.317 46.4317C184.942 45.1949 184.68 43.9704 184.534 42.6867C184.499 42.3891 184.457 42.0927 184.416 41.7959C183.865 37.5967 183.886 32.8881 185.1 28.8002C185.129 28.6951 185.159 28.5901 185.189 28.4818C185.9 26.1523 187.052 23.8678 188.57 21.9676C188.746 21.7406 188.903 21.5016 189.062 21.2627C190.009 19.958 191.243 18.8563 192.6 18.0002C192.736 17.9059 192.871 17.8109 193.006 17.7154C195.464 15.9908 198.327 14.9174 201.3 14.5002C201.422 14.4828 201.544 14.4653 201.669 14.4474C202.124 14.3914 202.576 14.3823 203.034 14.3799Z" fill="white"/>
<path d="M236.962 14.8504C237.053 14.8494 237.145 14.8485 237.239 14.8475C237.337 14.8486 237.435 14.8498 237.536 14.8509C237.639 14.8508 237.741 14.8506 237.847 14.8505C238.064 14.8507 238.281 14.8518 238.499 14.8539C238.826 14.8567 239.154 14.8559 239.481 14.8546C241.484 14.8566 243.262 15.0095 244.781 16.4654C246.033 17.8113 246.316 19.5238 246.314 21.2957C246.314 21.3919 246.314 21.4881 246.315 21.5873C246.315 21.9076 246.316 22.2278 246.316 22.5481C246.316 22.7787 246.317 23.0092 246.317 23.2398C246.318 23.7354 246.319 24.2311 246.32 24.7268C246.321 25.512 246.323 26.2973 246.325 27.0826C246.326 27.3519 246.327 27.6213 246.327 27.8907C246.328 27.958 246.328 28.0253 246.328 28.0946C246.33 28.8597 246.332 29.6247 246.334 30.3898C246.334 30.4597 246.334 30.5295 246.334 30.6015C246.337 31.7315 246.339 32.8615 246.34 33.9915C246.342 35.1551 246.345 36.3187 246.349 37.4823C246.351 38.1342 246.353 38.7861 246.353 39.438C246.353 40.0521 246.355 40.6663 246.357 41.2804C246.358 41.5044 246.358 41.7284 246.358 41.9524C246.355 44.4263 246.534 47.4959 248.35 49.3974C250.026 50.7574 252.387 50.8759 254.439 50.6774C255.631 50.5222 256.8 50.1146 257.7 49.3005C257.751 49.2552 257.802 49.2098 257.854 49.163C259.396 47.5794 259.714 44.9936 259.716 42.8989C259.716 42.7806 259.717 42.6622 259.717 42.5402C259.719 42.2139 259.719 41.8876 259.72 41.5612C259.721 41.2085 259.722 40.8557 259.723 40.503C259.726 39.8926 259.727 39.2822 259.729 38.6717C259.731 37.7892 259.734 36.9066 259.737 36.0241C259.742 34.592 259.746 33.16 259.75 31.728C259.754 30.3372 259.758 28.9465 259.763 27.5558C259.763 27.4271 259.763 27.4271 259.764 27.2958C259.765 26.8654 259.766 26.435 259.768 26.0046C259.779 22.4366 259.79 18.8686 259.8 15.3005C260.081 15.2514 260.362 15.203 260.643 15.1548C260.722 15.1411 260.8 15.1274 260.88 15.1132C263.325 14.6976 267.744 14.2053 270 15.4005C270.005 18.97 270.008 22.5395 270.01 26.1091C270.01 26.5315 270.011 26.9538 270.011 27.3762C270.011 27.5024 270.011 27.5024 270.011 27.631C270.012 28.9886 270.014 30.3461 270.015 31.7036C270.017 33.0988 270.018 34.4941 270.019 35.8893C270.019 36.7487 270.02 37.6081 270.022 38.4675C270.023 39.0586 270.023 39.6497 270.023 40.2408C270.023 40.5807 270.023 40.9206 270.024 41.2605C270.036 45.5651 269.456 49.8531 266.737 53.3568C266.693 53.414 266.649 53.4712 266.603 53.5301C266.382 53.8054 266.159 54.0448 265.885 54.2681C265.65 54.4601 265.487 54.6248 265.306 54.863C264.019 56.3582 261.933 57.3701 260.1 58.0005C260.037 58.0225 259.975 58.0445 259.91 58.0672C255.118 59.7068 248.57 59.4093 244.03 57.2179C243.454 56.9241 242.925 56.5774 242.4 56.2005C242.295 56.1263 242.191 56.052 242.083 55.9755C238.795 53.5753 236.942 50.0677 236.319 46.0755C236.275 45.7843 236.237 45.4927 236.2 45.2005C236.191 45.1357 236.182 45.0709 236.173 45.0041C236.093 44.3666 236.085 43.736 236.085 43.094C236.085 42.9751 236.084 42.8562 236.084 42.7337C236.083 42.4059 236.083 42.078 236.082 41.7502C236.082 41.3958 236.081 41.0414 236.08 40.687C236.078 39.833 236.077 38.9789 236.076 38.1248C236.076 37.7224 236.075 37.3199 236.075 36.9174C236.073 35.5796 236.072 34.2418 236.071 32.9039C236.071 32.5575 236.071 32.211 236.07 31.8645C236.07 31.7784 236.07 31.6922 236.07 31.6035C236.069 30.2058 236.067 28.8081 236.064 27.4103C236.06 25.9747 236.059 24.5391 236.058 23.1035C236.058 22.2977 236.057 21.4918 236.055 20.686C236.052 20.0005 236.052 19.315 236.053 18.6294C236.053 18.2796 236.053 17.9298 236.051 17.58C236.049 17.2011 236.05 16.8224 236.051 16.4435C236.05 16.3325 236.049 16.2214 236.048 16.107C236.049 16.0057 236.05 15.9045 236.05 15.8001C236.05 15.7127 236.05 15.6252 236.05 15.5351C236.155 15.043 236.485 14.8505 236.962 14.8504Z" fill="white"/>
<path d="M80.3891 14.8934C81.6709 14.868 82.946 14.9072 84.2251 14.9876C84.3523 14.9954 84.4795 15.0033 84.6106 15.0113C86.794 15.1607 86.794 15.1607 87.171 15.4157C87.3572 15.6817 87.4414 15.9537 87.5427 16.2622C87.5763 16.3634 87.5763 16.3634 87.6105 16.4668C87.6851 16.6922 87.7582 16.918 87.8313 17.1438C87.8837 17.3036 87.9361 17.4633 87.9886 17.623C88.1607 18.1482 88.3305 18.6741 88.5001 19.2001C88.5299 19.2924 88.5597 19.3846 88.5904 19.4797C88.8051 20.1445 89.0186 20.8097 89.2313 21.4751C89.2597 21.5637 89.2881 21.6524 89.3174 21.7437C89.5985 22.6227 89.874 23.5022 90.1259 24.3901C90.6537 26.2453 91.274 28.071 91.882 29.9011C92.1568 30.7283 92.4311 31.5557 92.7048 32.3833C92.7343 32.4727 92.7639 32.562 92.7943 32.6541C93.2121 33.9182 93.6217 35.1847 94.0208 36.4548C94.0434 36.5267 94.0661 36.5987 94.0894 36.6729C94.3367 37.4598 94.5756 38.2483 94.7938 39.0438C95.0834 40.08 95.4267 41.0975 95.7695 42.117C96.2355 43.5033 96.6943 44.8919 97.1501 46.2816C97.232 46.5313 97.314 46.7809 97.3962 47.0306C98.0699 49.0782 98.721 51.1319 99.3218 53.2022C99.4689 53.7046 99.6286 54.2023 99.793 54.6993C99.8173 54.7728 99.8416 54.8463 99.8666 54.9221C99.9656 55.221 100.065 55.5198 100.165 55.8182C100.24 56.0408 100.313 56.2638 100.387 56.4868C100.41 56.5543 100.433 56.6218 100.457 56.6913C100.611 57.166 100.611 57.166 100.5 57.5001C98.3425 58.6659 95.0578 59.0307 92.7001 58.4438C91.6101 58.1144 90.6519 57.519 90.0931 56.5062C89.1885 54.7698 88.6316 52.9237 88.1126 51.0438C88.0624 50.8637 88.0121 50.6835 87.9618 50.5034C87.8406 50.0691 87.7201 49.6347 87.6001 49.2001C87.5355 49.2002 87.471 49.2003 87.4045 49.2004C85.8311 49.2026 84.2577 49.2042 82.6843 49.2053C81.9234 49.2058 81.1624 49.2065 80.4015 49.2076C79.738 49.2086 79.0744 49.2093 78.4109 49.2095C78.0599 49.2096 77.7088 49.2099 77.3578 49.2107C76.965 49.2115 76.5722 49.2115 76.1794 49.2114C76.0643 49.2118 75.9491 49.2122 75.8305 49.2125C75.1807 49.2117 74.545 49.1798 73.9001 49.1001C73.8877 49.1667 73.8754 49.2333 73.8626 49.3019C73.7484 49.91 73.5936 50.4951 73.4102 51.0856C73.3826 51.1761 73.355 51.2666 73.3265 51.3598C73.239 51.6463 73.1508 51.9326 73.0626 52.2188C72.6242 53.6448 72.1924 55.0669 71.8544 56.5208C71.8318 56.6143 71.8091 56.7078 71.7858 56.8042C71.7401 56.9935 71.6967 57.1834 71.6553 57.3737C71.59 57.6347 71.5258 57.8621 71.4001 58.1001C71.0762 58.2567 71.0762 58.2567 70.7001 58.3001C70.5859 58.321 70.4717 58.3418 70.354 58.3634C67.8594 58.6771 64.4167 58.9373 62.1001 57.8001C61.9106 57.6434 61.9106 57.6434 61.8001 57.4001C61.7964 56.5286 62.1422 55.7136 62.4251 54.9001C62.5219 54.619 62.6182 54.3377 62.7141 54.0563C62.7381 53.9861 62.7621 53.9158 62.7869 53.8434C62.9797 53.2732 63.151 52.6981 63.3182 52.1199C63.5214 51.4198 63.7487 50.7285 63.9813 50.0376C64.03 49.8921 64.0787 49.7466 64.1274 49.601C64.4886 48.5231 64.8534 47.4464 65.2179 46.3696C65.2984 46.1318 65.3788 45.8939 65.4593 45.6561C65.7036 44.9343 65.9479 44.2125 66.1928 43.4909C66.2967 43.1847 66.4004 42.8785 66.5041 42.5723C66.5526 42.4291 66.6012 42.2859 66.6499 42.1428C67.0097 41.0842 67.3452 40.0199 67.6649 38.9485C68.1524 37.3227 68.6977 35.7192 69.2494 34.1144C69.2797 34.0264 69.3099 33.9384 69.3411 33.8477C69.3713 33.7598 69.4016 33.6718 69.4328 33.5811C69.8584 32.3414 70.2703 31.0971 70.683 29.853C70.8547 29.3356 71.0279 28.8187 71.2016 28.302C71.2755 28.082 71.3493 27.8619 71.4231 27.6418C71.469 27.5053 71.5149 27.3688 71.561 27.2324C71.8051 26.5095 72.0369 25.7855 72.2493 25.0528C72.486 24.2366 72.7477 23.4305 73.0188 22.6251C73.0688 22.4758 73.1188 22.3266 73.1687 22.1773C73.938 19.8823 74.7199 17.5914 75.5001 15.3001C75.8772 15.2509 76.2545 15.2026 76.6317 15.1544C76.7897 15.1338 76.7897 15.1338 76.9508 15.1128C78.0964 14.9672 79.2357 14.9199 80.3891 14.8934ZM80.7001 24.6001C80.675 24.711 80.65 24.8218 80.6241 24.9361C80.0413 27.5082 79.4131 30.061 78.7001 32.6001C78.6595 32.7452 78.6189 32.8903 78.5783 33.0355C78.1909 34.4187 77.7926 35.7984 77.3774 37.1735C77.3502 37.2639 77.3229 37.3543 77.2948 37.4474C77.1618 37.8878 77.0282 38.3281 76.8935 38.768C76.8446 38.9288 76.7958 39.0896 76.747 39.2505C76.7249 39.3217 76.7029 39.3929 76.6802 39.4663C76.5153 40.0113 76.4132 40.5343 76.3001 41.1001C79.3031 41.1001 82.3061 41.1001 85.4001 41.1001C85.1558 40.1229 84.9091 39.1531 84.6313 38.186C84.5613 37.9405 84.4913 37.695 84.4214 37.4495C84.3672 37.2599 84.3672 37.2599 84.3119 37.0666C84.1206 36.3974 83.9306 35.7279 83.7407 35.0583C83.7217 34.9914 83.7027 34.9245 83.6832 34.8555C82.9558 32.2907 82.2542 29.7189 81.5876 27.1376C81.5595 27.0293 81.5595 27.0293 81.5309 26.9188C81.3322 26.1499 81.143 25.3816 81.0001 24.6001C80.9011 24.6001 80.8021 24.6001 80.7001 24.6001Z" fill="white"/>
<path d="M288.76 15.2514C288.855 15.2506 288.95 15.2498 289.048 15.249C289.153 15.2502 289.257 15.2514 289.365 15.2526C289.476 15.2522 289.587 15.2519 289.701 15.2515C290.075 15.2509 290.448 15.2531 290.822 15.2552C291.089 15.2554 291.356 15.2553 291.623 15.2551C292.199 15.2549 292.775 15.2561 293.351 15.2584C294.183 15.2616 295.016 15.2627 295.849 15.2632C297.199 15.264 298.55 15.2667 299.901 15.2705C301.213 15.2742 302.526 15.277 303.838 15.2787C303.959 15.2788 303.959 15.2788 304.083 15.279C304.489 15.2795 304.895 15.28 305.3 15.2805C308.667 15.2847 312.033 15.2917 315.4 15.3007C315.433 15.4777 315.465 15.6548 315.497 15.8319C315.516 15.9305 315.534 16.0291 315.552 16.1307C316.012 18.7264 315.63 21.279 315 23.8007C309.357 23.8007 303.714 23.8007 297.9 23.8007C297.95 25.2362 297.95 25.2362 298 26.7007C298 28.5817 298 30.4627 298 32.4007C302.521 32.4007 307.042 32.4007 311.7 32.4007C312.164 34.0235 312.164 34.0235 312.225 34.8507C312.232 34.9408 312.24 35.031 312.248 35.1239C312.382 36.8627 312.371 38.7329 311.8 40.4007C311.767 40.4997 311.734 40.5987 311.7 40.7007C310.002 40.703 308.305 40.7048 306.607 40.7058C305.819 40.7064 305.031 40.7071 304.242 40.7082C303.555 40.7092 302.868 40.7098 302.181 40.7101C301.817 40.7102 301.453 40.7105 301.09 40.7112C300.683 40.712 300.277 40.7121 299.871 40.712C299.69 40.7125 299.69 40.7125 299.506 40.7131C299.395 40.713 299.284 40.7128 299.17 40.7127C299.025 40.7128 299.025 40.7128 298.878 40.713C298.579 40.6997 298.294 40.6555 298 40.6007C298 40.6731 298 40.7456 298.001 40.8203C298.003 41.5184 298.004 42.2165 298.005 42.9147C298.006 43.2732 298.006 43.6317 298.008 43.9902C298.014 45.9297 297.983 47.8627 297.9 49.8007C298.029 49.7844 298.157 49.7681 298.29 49.7514C299.08 49.673 299.873 49.6875 300.666 49.6893C300.843 49.6893 301.021 49.6893 301.198 49.6893C301.678 49.6892 302.157 49.6898 302.636 49.6905C303.138 49.6911 303.64 49.6912 304.142 49.6913C305.091 49.6916 306.04 49.6924 306.989 49.6935C308.07 49.6946 309.151 49.6951 310.232 49.6956C312.455 49.6967 314.677 49.6984 316.9 49.7007C316.903 50.0469 316.905 50.3931 316.907 50.7393C316.908 50.836 316.909 50.9327 316.91 51.0324C316.918 53.0959 316.463 55.3557 315.038 56.9257C313.468 58.3999 311.181 58.3159 309.17 58.3152C308.999 58.3155 308.828 58.3158 308.656 58.3162C308.195 58.3171 307.733 58.3173 307.271 58.3174C306.981 58.3175 306.692 58.3177 306.402 58.3179C305.39 58.3189 304.379 58.3193 303.367 58.3192C302.427 58.3191 301.487 58.3202 300.548 58.3218C299.738 58.3231 298.928 58.3236 298.118 58.3235C297.636 58.3235 297.153 58.3238 296.671 58.3249C296.217 58.3258 295.763 58.3258 295.309 58.3251C295.144 58.325 294.978 58.3252 294.813 58.3258C292.856 58.3326 291.027 58.1564 289.5 56.8007C288.149 55.4313 287.969 53.7712 287.974 51.936C287.974 51.7795 287.973 51.6229 287.973 51.4663C287.972 51.0386 287.972 50.6108 287.972 50.1831C287.973 49.7209 287.972 49.2587 287.971 48.7964C287.97 47.8921 287.97 46.9878 287.97 46.0835C287.97 45.3488 287.97 44.6141 287.969 43.8794C287.969 43.7747 287.969 43.6701 287.969 43.5623C287.969 43.3497 287.969 43.1371 287.969 42.9245C287.968 40.9328 287.968 38.9411 287.969 36.9494C287.969 35.1262 287.968 33.3029 287.966 31.4797C287.964 29.6075 287.963 27.7352 287.964 25.863C287.964 24.8119 287.964 23.7608 287.962 22.7097C287.961 21.8156 287.961 20.9215 287.962 20.0274C287.963 19.571 287.963 19.1147 287.962 18.6583C287.961 18.2409 287.961 17.8236 287.962 17.4062C287.962 17.2549 287.962 17.1036 287.961 16.9523C287.96 16.7472 287.961 16.5422 287.963 16.3371C287.963 16.2231 287.963 16.109 287.963 15.9914C288.031 15.4614 288.227 15.2505 288.76 15.2514Z" fill="white"/>
<path d="M115.868 15.2514C115.962 15.2506 116.056 15.2498 116.153 15.249C116.256 15.2502 116.359 15.2514 116.466 15.2526C116.63 15.252 116.63 15.252 116.798 15.2515C117.167 15.2509 117.536 15.2531 117.906 15.2552C118.17 15.2554 118.434 15.2553 118.698 15.2551C119.267 15.2549 119.836 15.2561 120.406 15.2584C121.229 15.2616 122.052 15.2627 122.875 15.2632C124.21 15.264 125.545 15.2667 126.88 15.2705C128.178 15.2742 129.475 15.277 130.772 15.2787C130.852 15.2788 130.932 15.2789 131.014 15.279C131.415 15.2795 131.816 15.28 132.217 15.2805C135.545 15.2847 138.872 15.2917 142.2 15.3007C142.249 15.4409 142.297 15.5813 142.345 15.7218C142.372 15.7999 142.399 15.8781 142.427 15.9587C142.545 16.3488 142.584 16.7398 142.619 17.1444C142.627 17.2307 142.634 17.3169 142.642 17.4058C142.94 20.9541 142.94 20.9541 141.9 22.3007C140.957 23.3466 139.654 23.8155 138.268 23.9275C137.919 23.9372 137.571 23.9378 137.222 23.9347C137.026 23.9348 137.026 23.9348 136.826 23.9348C136.471 23.9349 136.117 23.9332 135.762 23.9311C135.39 23.9292 135.018 23.929 134.646 23.9287C133.943 23.9277 133.241 23.9253 132.538 23.9223C131.587 23.9183 130.637 23.9167 129.686 23.9149C128.191 23.9121 126.695 23.9061 125.2 23.9007C125.2 26.7717 125.2 29.6427 125.2 32.6007C129.589 32.6007 133.978 32.6007 138.5 32.6007C138.855 34.0204 138.855 34.0204 138.919 34.6319C138.927 34.7067 138.934 34.7815 138.942 34.8586C139.133 36.8998 138.997 38.9121 138.5 40.9007C134.111 40.9007 129.722 40.9007 125.2 40.9007C125.2 46.5767 125.2 52.2527 125.2 58.1007C124.224 58.2508 123.281 58.3628 122.3 58.4194C122.227 58.4237 122.153 58.4281 122.078 58.4325C119.745 58.5662 117.298 58.5678 115 58.1007C114.991 52.706 114.984 47.3113 114.98 41.9166C114.979 41.2802 114.979 40.6438 114.978 40.0074C114.978 39.8807 114.978 39.754 114.978 39.6235C114.976 37.57 114.973 35.5165 114.969 33.463C114.965 31.3571 114.963 29.2512 114.962 27.1453C114.962 25.845 114.96 24.5448 114.957 23.2446C114.955 22.3539 114.954 21.4632 114.955 20.5725C114.955 20.058 114.954 19.5435 114.952 19.0291C114.95 18.5585 114.95 18.088 114.952 17.6175C114.952 17.4468 114.951 17.2762 114.95 17.1055C114.948 16.8743 114.949 16.6432 114.951 16.4121C114.951 16.2834 114.951 16.1548 114.95 16.0222C115 15.7007 115 15.7007 115.174 15.4593C115.433 15.2777 115.555 15.2509 115.868 15.2514Z" fill="white"/>
<path d="M165.144 14.932C165.214 14.9342 165.285 14.9365 165.358 14.9388C166.223 14.9819 167.032 15.156 167.9 15.3007C167.9 29.4247 167.9 43.5487 167.9 58.1007C166.905 58.2538 165.944 58.3638 164.944 58.4195C164.868 58.4238 164.792 58.4281 164.714 58.4326C162.856 58.5357 161.016 58.4802 159.162 58.307C159.083 58.2995 159.003 58.2921 158.921 58.2844C158.847 58.2765 158.774 58.2686 158.698 58.2605C158.635 58.2538 158.572 58.2471 158.507 58.2402C158.232 58.1877 157.966 58.0895 157.7 58.0007C157.7 43.9097 157.7 29.8187 157.7 15.3007C160.116 14.7639 162.681 14.8324 165.144 14.932Z" fill="white"/>
<path d="M305.237 72.5832C305.486 72.5824 305.734 72.5813 305.983 72.5799C308.649 72.5664 311.34 72.7077 313.379 74.6632C314.709 76.0895 315.065 77.7264 315.024 79.616C314.972 80.9675 314.424 82.2303 313.497 83.2226C313.127 83.5574 312.718 83.8305 312.3 84.1007C312.201 84.1667 312.102 84.2327 312 84.3007C312.079 84.3385 312.158 84.3763 312.239 84.4152C314.072 85.3417 315.242 86.61 315.9 88.6007C316.448 90.5234 316.178 92.6565 315.213 94.3912C314.256 96.0231 312.66 96.9205 310.872 97.4148C310.749 97.4432 310.626 97.4715 310.5 97.5007C310.43 97.5177 310.361 97.5346 310.289 97.5521C309.375 97.748 308.466 97.7279 307.537 97.7238C307.356 97.7237 307.176 97.7236 306.995 97.7236C306.618 97.7235 306.241 97.7227 305.864 97.7213C305.386 97.7196 304.908 97.7192 304.429 97.7193C304.057 97.7193 303.684 97.7187 303.312 97.718C303.136 97.7177 302.959 97.7175 302.783 97.7174C301.902 97.7166 301.022 97.7059 300.141 97.6622C300.033 97.6577 300.033 97.6577 299.923 97.653C299.424 97.6244 299.424 97.6244 299.2 97.4007C299.175 97.219 299.175 97.219 299.175 96.9941C299.174 96.9084 299.173 96.8228 299.173 96.7346C299.173 96.64 299.174 96.5454 299.174 96.4479C299.174 96.3478 299.173 96.2478 299.173 96.1447C299.172 95.8072 299.172 95.4697 299.173 95.1322C299.172 94.8911 299.172 94.65 299.171 94.4089C299.17 93.8208 299.17 93.2327 299.17 92.6446C299.17 92.1667 299.17 91.6889 299.169 91.2111C299.169 91.1432 299.169 91.0753 299.169 91.0053C299.169 90.8674 299.169 90.7294 299.169 90.5915C299.168 89.2968 299.168 88.0022 299.169 86.7076C299.169 85.5221 299.168 84.3366 299.166 83.1511C299.164 81.935 299.163 80.7189 299.164 79.5027C299.164 78.8195 299.164 78.1363 299.162 77.4531C299.161 76.8109 299.161 76.1687 299.162 75.5265C299.163 75.2902 299.162 75.0539 299.162 74.8176C299.161 74.4962 299.161 74.1749 299.163 73.8536C299.162 73.7589 299.161 73.6643 299.16 73.5669C299.161 73.4812 299.162 73.3956 299.163 73.3074C299.163 73.2332 299.163 73.1589 299.163 73.0824C299.2 72.9007 299.2 72.9007 299.5 72.7007C299.739 72.6689 299.739 72.6689 300.032 72.6593C300.147 72.6554 300.262 72.6515 300.38 72.6475C300.508 72.6445 300.637 72.6414 300.769 72.6382C300.835 72.6364 300.902 72.6346 300.97 72.6328C302.392 72.5947 303.814 72.5876 305.237 72.5832ZM303.2 75.7007C303.2 78.1097 303.2 80.5187 303.2 83.0007C304.202 83.0069 304.202 83.0069 305.225 83.0132C305.538 83.016 305.538 83.016 305.856 83.0188C307.394 83.0268 308.911 83.0222 310.1 81.9007C310.187 81.8203 310.273 81.7399 310.363 81.657C310.996 80.8594 310.996 79.5654 310.9 78.6007C310.73 77.7497 310.561 77.0335 309.83 76.5058C309.732 76.4485 309.633 76.3911 309.531 76.332C309.434 76.2739 309.337 76.2157 309.236 76.1558C308.471 75.8029 307.695 75.7689 306.862 75.7593C306.769 75.7576 306.675 75.7558 306.579 75.754C306.234 75.7477 305.889 75.7431 305.544 75.7382C304.77 75.7259 303.997 75.7135 303.2 75.7007ZM303.2 86.1007C303.2 88.9387 303.2 91.7767 303.2 94.7007C304.376 94.7069 304.376 94.7069 305.575 94.7132C305.942 94.716 305.942 94.716 306.317 94.7188C306.515 94.7193 306.713 94.7198 306.911 94.7203C307.011 94.7213 307.11 94.7223 307.213 94.7234C308.56 94.7237 309.805 94.5471 310.815 93.5972C311.65 92.7095 312.013 91.6568 312.05 90.4445C312.016 89.3395 311.665 88.4725 311 87.6007C310.96 87.5443 310.92 87.4878 310.879 87.4296C310.206 86.5376 309.164 86.2511 308.1 86.1007C307.252 86.0392 306.4 86.0629 305.55 86.0757C304.775 86.084 303.999 86.0922 303.2 86.1007Z" fill="white"/>
<path d="M377.273 44.0987C377.709 44.441 378.123 44.7934 378.5 45.2003C378.559 45.2601 378.618 45.3199 378.679 45.3815C380.278 47.0635 380.941 49.3491 380.895 51.6345C380.793 53.6563 379.955 55.6035 378.6 57.1003C378.521 57.1906 378.442 57.281 378.361 57.3741C376.906 58.9463 374.705 59.8112 372.584 59.9288C370.308 60.0024 367.996 59.2688 366.269 57.7565C365.333 56.872 364.681 55.9642 364.187 54.7753C364.154 54.6983 364.121 54.6213 364.086 54.542C363.634 53.4644 363.446 52.4428 363.456 51.2753C363.457 51.098 363.457 51.098 363.458 50.9172C363.475 49.9875 363.588 49.1775 363.9 48.3003C363.937 48.1944 363.975 48.0886 364.013 47.9795C364.541 46.6171 365.274 45.5229 366.4 44.6003C366.485 44.5288 366.571 44.4574 366.659 44.3838C367.747 43.5164 369.028 42.8711 370.4 42.6003C370.487 42.5821 370.575 42.5639 370.664 42.5452C372.984 42.2347 375.362 42.7099 377.273 44.0987Z" fill="white"/>
<path d="M279.656 72.5881C279.833 72.5875 279.833 72.5875 280.014 72.5869C280.343 72.5873 280.671 72.592 281 72.6006C281.083 72.6024 281.166 72.6043 281.251 72.6062C281.465 72.6201 281.465 72.6201 281.8 72.7006C282.106 73.1049 282.239 73.5721 282.39 74.0494C282.417 74.1332 282.444 74.217 282.472 74.3034C282.561 74.5794 282.649 74.8556 282.737 75.1318C282.8 75.3262 282.863 75.5205 282.926 75.7148C283.087 76.2139 283.247 76.7133 283.407 77.2126C283.654 77.9798 283.902 78.7466 284.15 79.5131C284.176 79.595 284.203 79.677 284.23 79.7614C284.659 81.0824 285.103 82.3977 285.554 83.7112C286.054 85.1693 286.548 86.6298 287.036 88.092C287.115 88.3277 287.194 88.5634 287.273 88.7991C287.636 89.8834 287.997 90.9664 288.311 92.0661C288.626 93.1547 289.015 94.2212 289.387 95.2915C289.488 95.5837 289.589 95.8761 289.689 96.1686C289.736 96.3026 289.736 96.3026 289.784 96.4394C289.812 96.5219 289.841 96.6045 289.87 96.6896C289.908 96.7982 289.908 96.7982 289.946 96.9089C290 97.1006 290 97.1006 290 97.4006C289.013 97.9057 287.883 97.9964 286.8 97.8006C286.298 97.627 285.977 97.3501 285.7 96.9006C285.26 95.9871 284.96 95.0142 284.65 94.0512C284.568 93.798 284.485 93.5452 284.402 93.2924C284.35 93.1306 284.297 92.9687 284.245 92.8068C284.22 92.7317 284.196 92.6566 284.17 92.5792C284.059 92.2328 284 91.9681 284 91.6006C280.997 91.6336 277.994 91.6666 274.9 91.7006C274.669 92.4926 274.438 93.2846 274.2 94.1006C274.029 94.6582 273.858 95.2154 273.683 95.7715C273.61 96.0025 273.538 96.2337 273.466 96.4648C273.419 96.6131 273.372 96.7613 273.326 96.9096C273.304 96.9781 273.283 97.0466 273.261 97.1172C273.111 97.5891 273.111 97.5891 273 97.7006C271.746 97.8939 270.515 97.894 269.3 97.5006C269.177 97.1503 269.223 96.9551 269.351 96.6111C269.386 96.5154 269.42 96.4197 269.456 96.3211C269.493 96.2215 269.53 96.1219 269.569 96.0193C269.802 95.3877 270.015 94.7612 270.181 94.1081C270.39 93.3083 270.647 92.527 270.915 91.7451C270.964 91.5992 271.014 91.4532 271.063 91.3072C271.194 90.9216 271.325 90.5362 271.456 90.1508C271.593 89.7512 271.728 89.3513 271.864 88.9515C272.325 87.5932 272.788 86.2355 273.252 84.8783C273.284 84.7834 273.317 84.6885 273.35 84.5907C273.493 84.1732 273.636 83.7559 273.78 83.3387C274.036 82.5948 274.282 81.8489 274.514 81.0973C274.746 80.3468 274.994 79.6018 275.244 78.8568C275.269 78.7822 275.294 78.7075 275.319 78.6306C275.734 77.389 276.153 76.1486 276.574 74.9093C276.637 74.7245 276.7 74.5397 276.763 74.3549C276.85 74.0967 276.938 73.8387 277.026 73.5807C277.066 73.4641 277.066 73.4641 277.106 73.3451C277.288 72.812 277.288 72.812 277.4 72.7006C278.152 72.5883 278.897 72.5856 279.656 72.5881ZM279.3 76.8006C279.285 76.8726 279.269 76.9446 279.253 77.0188C278.69 79.6114 277.919 82.1212 277.096 84.6416C277.061 84.7467 277.027 84.8519 276.992 84.9602C276.821 85.4809 276.65 86.0014 276.477 86.5215C276.446 86.6177 276.414 86.7139 276.381 86.8131C276.321 86.9946 276.261 87.1759 276.201 87.3572C276.161 87.4781 276.161 87.4781 276.12 87.6014C276.097 87.6716 276.074 87.7418 276.049 87.8141C275.987 88.0168 275.987 88.0168 276 88.3006C278.277 88.3006 280.554 88.3006 282.9 88.3006C282.739 87.5665 282.739 87.5665 282.533 86.8542C282.501 86.7562 282.469 86.6582 282.436 86.5572C282.402 86.4533 282.368 86.3494 282.332 86.2424C282.258 86.0126 282.183 85.7829 282.108 85.5531C282.069 85.4333 282.03 85.3135 281.99 85.1901C281.211 82.8037 280.469 80.4088 279.775 77.9964C279.659 77.5945 279.535 77.1964 279.4 76.8006C279.367 76.8006 279.334 76.8006 279.3 76.8006Z" fill="white"/>
<path d="M337.371 70.6596C338.522 71.3648 339.674 72.0542 340.89 72.6426C341.307 72.8543 341.697 73.101 342.093 73.3504C342.649 73.6961 343.22 74.0178 343.788 74.3438C344.507 74.7573 345.227 75.1708 345.938 75.6C346.025 75.6527 346.025 75.6527 346.114 75.7064C346.276 75.8042 346.438 75.9021 346.6 76C347.181 76.3483 347.76 76.6851 348.369 76.9813C349.38 77.4774 350.339 78.0734 351.294 78.6688C352.645 79.5057 354.034 80.2843 355.419 81.0625C355.479 81.0963 355.539 81.1301 355.6 81.1648C355.989 81.3838 356.381 81.5984 356.773 81.8117C359.502 83.3067 359.502 83.3067 360 84.8C360.077 85.9893 360.045 86.864 359.281 87.825C358.626 88.5327 357.869 88.8086 356.925 88.8563C356.087 88.862 355.473 88.5647 354.762 88.1517C354.506 88.0037 354.25 87.8589 353.992 87.7149C351.904 86.5457 351.904 86.5457 350.997 85.9279C350.703 85.7369 350.399 85.5931 350.081 85.4438C348.794 84.8211 347.579 84.059 346.365 83.3067C345.713 82.9052 345.053 82.522 344.388 82.1438C344.266 82.0747 344.145 82.0056 344.024 81.9365C343.18 81.4557 342.331 80.9828 341.481 80.5125C339.793 79.5783 338.142 78.5912 336.501 77.5769C335.808 77.1489 335.114 76.7496 334.381 76.3938C333.226 75.8284 331.94 75.1569 331.406 73.9125C331.105 72.9077 331.186 72.0643 331.6 71.1C332.015 70.3593 332.648 69.8242 333.458 69.5508C335.024 69.2229 336.094 69.8729 337.371 70.6596Z" fill="white"/>
<path d="M248.579 72.5607C248.673 72.5604 248.767 72.56 248.864 72.5596C249.012 72.5613 249.012 72.5613 249.162 72.5631C249.258 72.5619 249.354 72.5608 249.453 72.5596C250.108 72.5622 250.832 72.5968 251.359 73.0316C251.865 73.5957 251.93 74.2078 251.928 74.9358C251.929 75.0597 251.929 75.0597 251.93 75.1861C251.931 75.462 251.932 75.7379 251.932 76.0138C251.933 76.2119 251.934 76.41 251.935 76.6082C251.938 77.1455 251.939 77.6828 251.94 78.2202C251.942 78.7819 251.945 79.3437 251.947 79.9054C251.952 80.9689 251.956 82.0325 251.959 83.096C251.963 84.3069 251.968 85.5177 251.973 86.7286C251.983 89.2193 251.992 91.7099 252 94.2006C252.104 94.1935 252.208 94.1864 252.315 94.1791C253.071 94.1289 253.823 94.0856 254.58 94.0892C254.665 94.0892 254.75 94.0892 254.838 94.0892C255.112 94.0893 255.386 94.09 255.659 94.0908C255.852 94.091 256.045 94.0911 256.238 94.0912C256.739 94.0916 257.241 94.0926 257.743 94.0937C258.257 94.0948 258.771 94.0952 259.285 94.0957C260.29 94.0968 261.295 94.0985 262.3 94.1006C262.286 94.3392 262.272 94.5777 262.257 94.8162C262.254 94.8831 262.25 94.9501 262.246 95.019C262.194 95.8544 262.038 96.5112 261.489 97.1533C260.871 97.6347 260.258 97.6444 259.505 97.641C259.397 97.6417 259.289 97.6424 259.178 97.6431C258.822 97.6449 258.466 97.6445 258.11 97.6439C257.861 97.6444 257.613 97.6449 257.365 97.6455C256.845 97.6464 256.326 97.6462 255.806 97.6452C255.141 97.644 254.475 97.6461 253.81 97.649C253.298 97.6508 252.785 97.6508 252.273 97.6502C252.028 97.6502 251.783 97.6508 251.537 97.652C251.194 97.6535 250.851 97.6525 250.508 97.6508C250.357 97.6522 250.357 97.6522 250.202 97.6537C249.487 97.6462 248.937 97.5049 248.398 97.0182C248.353 96.9567 248.308 96.8952 248.262 96.8318C248.193 96.7415 248.193 96.7415 248.123 96.6494C247.796 95.987 247.771 95.2621 247.774 94.5364C247.773 94.4435 247.773 94.3507 247.773 94.255C247.772 93.9462 247.772 93.6374 247.772 93.3286C247.772 93.1063 247.771 92.884 247.771 92.6617C247.77 92.0596 247.769 91.4576 247.77 90.8556C247.77 90.3531 247.769 89.8505 247.769 89.348C247.768 88.0954 247.768 86.8429 247.768 85.5904C247.769 84.5023 247.768 83.4143 247.766 82.3262C247.764 81.2083 247.763 80.0903 247.764 78.9724C247.764 78.345 247.763 77.7176 247.762 77.0902C247.761 76.5011 247.761 75.9119 247.762 75.3227C247.763 75.1061 247.762 74.8895 247.761 74.6729C247.76 74.3781 247.761 74.0834 247.762 73.7886C247.762 73.7021 247.761 73.6157 247.76 73.5266C247.766 72.9432 247.766 72.9432 247.938 72.7288C248.158 72.5548 248.301 72.5618 248.579 72.5607Z" fill="white"/>
<path d="M337.5 85.0001C338.111 85.3664 338.721 85.7147 339.363 86.0251C339.986 86.332 340.573 86.6798 341.163 87.0463C341.798 87.4402 342.441 87.8187 343.088 88.1938C343.291 88.3127 343.495 88.4316 343.699 88.5505C344.089 88.778 344.481 89.0035 344.873 89.2278C345.051 89.331 345.229 89.4342 345.406 89.5376C345.486 89.5827 345.567 89.6278 345.649 89.6743C346.43 90.1321 347.027 90.7461 347.334 91.6098C347.526 92.4539 347.52 93.3805 347.145 94.1719C346.601 95.0257 345.902 95.4896 344.95 95.7751C343.789 95.8912 342.975 95.6425 342.007 94.9934C341.672 94.7825 341.325 94.6087 340.969 94.4376C339.688 93.8166 338.479 93.0592 337.27 92.3098C336.587 91.8885 335.892 91.4896 335.194 91.0938C334.842 90.894 334.49 90.6939 334.139 90.4935C333.913 90.3645 333.686 90.2359 333.46 90.1078C333.354 90.0471 333.247 89.9864 333.138 89.9239C333.044 89.8704 332.95 89.817 332.853 89.7619C332.091 89.2738 331.693 88.5729 331.5 87.7001C331.388 86.7415 331.511 85.9485 332.073 85.1559C333.674 83.2159 335.629 83.8663 337.5 85.0001Z" fill="white"/>
<path d="M356.594 44.8189C357.567 45.6241 358.185 46.7351 358.322 48.0019C358.414 49.5909 358.037 50.8754 357.019 52.1216C356.145 53.0682 354.974 53.6573 353.688 53.7279C352.155 53.778 350.831 53.3661 349.684 52.2974C348.71 51.2553 348.132 49.8925 348.175 48.4541C348.304 47.126 348.727 45.862 349.766 44.972C351.984 43.31 354.297 43.1126 356.594 44.8189Z" fill="white"/>
<path d="M357.237 28.8797C358.733 28.8151 359.937 29.4241 361.051 30.3632C361.408 30.6918 361.66 31.0818 361.9 31.5004C361.941 31.5705 361.981 31.6406 362.023 31.7129C362.405 32.4208 362.538 33.1353 362.531 33.9316C362.531 34.0058 362.53 34.0799 362.529 34.1563C362.498 35.58 361.911 36.6381 360.949 37.6676C359.805 38.7362 358.545 39.0452 357.023 39.0215C355.803 38.978 354.685 38.3511 353.807 37.5266C352.822 36.4487 352.358 35.1711 352.38 33.7277C352.468 32.3032 353.084 31.0857 354.125 30.1074C355.047 29.4125 356.09 28.9799 357.237 28.8797Z" fill="white"/>
<path d="M376.41 27.6406C377.237 28.2948 377.87 29.4047 378.062 30.4344C378.227 32.0353 378.094 33.5141 377.062 34.809C377.009 34.872 376.955 34.935 376.9 35C376.847 35.062 376.795 35.124 376.741 35.1879C375.92 36.082 374.633 36.5428 373.439 36.616C372.681 36.6386 372.021 36.5255 371.3 36.3C371.213 36.2745 371.127 36.2489 371.037 36.2226C369.894 35.8331 369.151 34.9425 368.6 33.9C367.989 32.5906 367.883 31.1811 368.367 29.8097C368.976 28.3862 369.761 27.4892 371.2 26.9C372.967 26.2194 374.867 26.6067 376.41 27.6406Z" fill="white"/>
</svg>
