<svg width="342" height="342" viewBox="0 0 342 342" fill="none" xmlns="http://www.w3.org/2000/svg">
<path d="M157.333 51.4667C136.933 55.4667 116.133 63.4667 109.067 70.4001C104.667 74.4001 104.4 77.3334 107.867 80.5334C111.2 83.6001 114.933 82.5334 127.6 74.5334C140.267 66.5334 148.133 63.8667 162 63.0667C179.6 62.1334 185.333 66.8001 185.333 82.4001C185.333 98.0001 178.533 112.267 162.8 130C133.067 163.6 95.7334 183.6 61.8668 184.267L51.6001 184.4L52.4001 191.867C53.4668 201.333 57.8668 215.6 63.0668 226.267C66.9334 234.4 67.3334 234.667 72.1334 234.667C91.0668 234.667 115.2 228.133 138 216.667C176.933 197.2 203.867 171.333 220 138.133C231.867 113.6 235.467 91.6001 230.267 74.2667C228.133 67.4667 227.067 66.0001 221.6 62.5334C210 55.2001 196.133 51.6001 177.333 51.2001C168.133 51.0667 159.2 51.2001 157.333 51.4667Z" fill="white"/>
<path d="M252.8 90.6666C259.867 109.867 250.933 143.733 230.667 174.133C220.533 189.333 193.2 216 176.667 227.067C151.467 243.733 127.067 253.067 100.667 256.4L87.4668 258.133L98.1335 265.867C110.267 274.8 120.267 280.133 130.667 283.2C137.467 285.2 138.8 285.2 148.667 283.2C209.867 270.667 262.667 223.333 279.333 165.867C284.933 146.667 285.067 140 280.133 127.333C275.2 114.533 265.333 98.9333 256.667 90.6666L250.533 84.6666L252.8 90.6666Z" fill="white"/>
<path d="M286.8 184.133C281.2 203.2 266.667 226.667 250 243.467C235.333 258.133 223.2 266.4 196.667 279.6C174 290.933 174 290.933 181.733 290C201.067 287.733 225.067 277.867 241.6 265.333C264 248.267 280.8 221.333 287.333 191.733C289.867 180.267 289.467 175.067 286.8 184.133Z" fill="white"/>
</svg>
