<svg width="600" height="600" viewBox="0 0 600 600" fill="none" xmlns="http://www.w3.org/2000/svg">
  <!-- Simplified vector field pattern -->
  <g opacity="0.3">
    <circle cx="100" cy="100" r="3" fill="white"/>
    <circle cx="150" cy="100" r="3" fill="white"/>
    <circle cx="200" cy="100" r="3" fill="white"/>
    <circle cx="250" cy="100" r="3" fill="white"/>
    <circle cx="300" cy="100" r="3" fill="white"/>
    <circle cx="350" cy="100" r="3" fill="white"/>
    <circle cx="400" cy="100" r="3" fill="white"/>
    <circle cx="450" cy="100" r="3" fill="white"/>
    <circle cx="500" cy="100" r="3" fill="white"/>
    
    <circle cx="100" cy="150" r="3" fill="white"/>
    <circle cx="150" cy="150" r="3" fill="white"/>
    <circle cx="200" cy="150" r="3" fill="white"/>
    <circle cx="250" cy="150" r="3" fill="white"/>
    <circle cx="300" cy="150" r="3" fill="white"/>
    <circle cx="350" cy="150" r="3" fill="white"/>
    <circle cx="400" cy="150" r="3" fill="white"/>
    <circle cx="450" cy="150" r="3" fill="white"/>
    <circle cx="500" cy="150" r="3" fill="white"/>
    
    <circle cx="100" cy="200" r="3" fill="white"/>
    <circle cx="150" cy="200" r="3" fill="white"/>
    <circle cx="200" cy="200" r="3" fill="white"/>
    <circle cx="250" cy="200" r="3" fill="white"/>
    <circle cx="300" cy="200" r="3" fill="white"/>
    <circle cx="350" cy="200" r="3" fill="white"/>
    <circle cx="400" cy="200" r="3" fill="white"/>
    <circle cx="450" cy="200" r="3" fill="white"/>
    <circle cx="500" cy="200" r="3" fill="white"/>
    
    <circle cx="100" cy="250" r="3" fill="white"/>
    <circle cx="150" cy="250" r="3" fill="white"/>
    <circle cx="200" cy="250" r="3" fill="white"/>
    <circle cx="250" cy="250" r="3" fill="white"/>
    <circle cx="300" cy="250" r="3" fill="white"/>
    <circle cx="350" cy="250" r="3" fill="white"/>
    <circle cx="400" cy="250" r="3" fill="white"/>
    <circle cx="450" cy="250" r="3" fill="white"/>
    <circle cx="500" cy="250" r="3" fill="white"/>
    
    <circle cx="100" cy="300" r="3" fill="white"/>
    <circle cx="150" cy="300" r="3" fill="white"/>
    <circle cx="200" cy="300" r="3" fill="white"/>
    <circle cx="250" cy="300" r="3" fill="white"/>
    <circle cx="300" cy="300" r="3" fill="white"/>
    <circle cx="350" cy="300" r="3" fill="white"/>
    <circle cx="400" cy="300" r="3" fill="white"/>
    <circle cx="450" cy="300" r="3" fill="white"/>
    <circle cx="500" cy="300" r="3" fill="white"/>
    
    <circle cx="100" cy="350" r="3" fill="white"/>
    <circle cx="150" cy="350" r="3" fill="white"/>
    <circle cx="200" cy="350" r="3" fill="white"/>
    <circle cx="250" cy="350" r="3" fill="white"/>
    <circle cx="300" cy="350" r="3" fill="white"/>
    <circle cx="350" cy="350" r="3" fill="white"/>
    <circle cx="400" cy="350" r="3" fill="white"/>
    <circle cx="450" cy="350" r="3" fill="white"/>
    <circle cx="500" cy="350" r="3" fill="white"/>
    
    <circle cx="100" cy="400" r="3" fill="white"/>
    <circle cx="150" cy="400" r="3" fill="white"/>
    <circle cx="200" cy="400" r="3" fill="white"/>
    <circle cx="250" cy="400" r="3" fill="white"/>
    <circle cx="300" cy="400" r="3" fill="white"/>
    <circle cx="350" cy="400" r="3" fill="white"/>
    <circle cx="400" cy="400" r="3" fill="white"/>
    <circle cx="450" cy="400" r="3" fill="white"/>
    <circle cx="500" cy="400" r="3" fill="white"/>
    
    <circle cx="100" cy="450" r="3" fill="white"/>
    <circle cx="150" cy="450" r="3" fill="white"/>
    <circle cx="200" cy="450" r="3" fill="white"/>
    <circle cx="250" cy="450" r="3" fill="white"/>
    <circle cx="300" cy="450" r="3" fill="white"/>
    <circle cx="350" cy="450" r="3" fill="white"/>
    <circle cx="400" cy="450" r="3" fill="white"/>
    <circle cx="450" cy="450" r="3" fill="white"/>
    <circle cx="500" cy="450" r="3" fill="white"/>
    
    <circle cx="100" cy="500" r="3" fill="white"/>
    <circle cx="150" cy="500" r="3" fill="white"/>
    <circle cx="200" cy="500" r="3" fill="white"/>
    <circle cx="250" cy="500" r="3" fill="white"/>
    <circle cx="300" cy="500" r="3" fill="white"/>
    <circle cx="350" cy="500" r="3" fill="white"/>
    <circle cx="400" cy="500" r="3" fill="white"/>
    <circle cx="450" cy="500" r="3" fill="white"/>
    <circle cx="500" cy="500" r="3" fill="white"/>
  </g>
</svg>
