<svg xmlns="http://www.w3.org/2000/svg" width="109" height="110" viewBox="0 0 109 110" fill="none" class="w-24 h-24 lg:w-28 lg:h-28">
    <g clip-path="url(#clip0_1001_1645)" filter="url(#filter0_d_1001_1645)">
        <path d="M60.1736 73.713C60.1661 73.7953 60.1504 73.8763 60.1269 73.9551C60.4964 73.3391 60.982 72.7985 61.5584 72.364C63.5027 71.1467 65.4326 70.291 67.4049 69.1625C68.1407 68.7232 68.8524 68.2448 69.5371 67.7293C71.2494 66.3078 72.6396 64.538 73.615 62.5377C74.5905 60.5374 75.129 58.3523 75.1948 56.1278C75.4636 51.5065 74.5309 46.8944 72.4875 42.7407C70.4095 38.4696 67.0579 34.948 62.8947 32.6614C58.7314 30.3748 53.9615 29.4356 49.2422 29.9734C44.428 30.2553 39.8078 31.9692 35.9744 34.8951C32.141 37.821 29.2692 41.8255 27.7274 46.3949C27.1693 48.194 26.8791 50.0654 26.866 51.9491C26.7826 53.7302 27.0972 55.5075 27.7869 57.1519C29.4061 60.518 32.5362 62.0444 33.8249 64.6007C34.4216 65.7873 34.6373 67.1263 34.4536 68.4335L50.4841 70.6864L58.9455 72.3603C59.1173 72.3612 59.287 72.3978 59.4438 72.4678C59.6007 72.5378 59.7414 72.6396 59.8568 72.7668C59.9723 72.894 60.0601 73.0437 60.1146 73.2066C60.1691 73.3695 60.1892 73.542 60.1736 73.713Z" fill="#FFF000" fill-opacity="0.32" />
        <path d="M79.2967 56.4579C79.6455 51.0876 78.5811 45.7196 76.2095 40.8887C73.7613 35.8784 69.8111 31.7566 64.9095 29.0976C60.0078 26.4386 54.3987 25.3749 48.8639 26.0546C43.3762 26.5201 38.155 28.6238 33.8775 32.0928C29.6 35.5618 26.4635 40.236 24.8749 45.5093C24.2846 47.5496 23.9875 49.6636 23.9925 51.7876C23.9935 53.9932 24.4991 56.1728 25.4726 58.1555C27.2108 61.5384 30.4439 62.8774 31.8047 65.5245C32.3314 66.5478 32.4648 67.7258 32.1867 68.842C32.1263 69.1209 32.3328 69.6529 32.3328 69.6529C32.3328 69.6529 32.7295 70.0629 33.0082 70.1248L34.1173 70.2806C36.8356 71.4598 39.6203 72.4543 42.4713 73.2643C43.6928 73.5976 44.9321 73.8525 46.1891 74.0292L49.9402 74.5564C52.8199 74.9611 55.7419 74.8063 58.7208 74.821C58.8899 74.8512 59.0635 74.8459 59.2304 74.8055C59.3974 74.7651 59.5541 74.6904 59.6907 74.5863C59.7629 74.5312 59.8287 74.4685 59.8869 74.3994C59.9603 74.2475 60.0405 74.0992 60.1269 73.9551C60.1504 73.8763 60.1661 73.7953 60.1736 73.713C60.1892 73.542 60.1691 73.3695 60.1146 73.2066C60.0601 73.0437 59.9723 72.894 59.8568 72.7668C59.7414 72.6396 59.6007 72.5378 59.4438 72.4678C59.287 72.3978 59.1173 72.3612 58.9455 72.3603L50.4841 70.6864L34.4536 68.4335C34.6373 67.1263 34.4216 65.7873 33.8249 64.6007C32.5362 62.0444 29.4061 60.518 27.7869 57.1519C27.0972 55.5075 26.7826 53.7302 26.866 51.9491C26.8791 50.0654 27.1693 48.194 27.7274 46.3949C29.2692 41.8255 32.141 37.821 35.9744 34.8951C39.8078 31.9692 44.428 30.2553 49.2422 29.9734C53.9615 29.4356 58.7314 30.3748 62.8947 32.6614C67.0579 34.948 70.4095 38.4696 72.4875 42.7407C74.5309 46.8944 75.4636 51.5065 75.1948 56.1278C75.129 58.3523 74.5905 60.5374 73.615 62.5377C72.6396 64.538 71.2494 66.3078 69.5371 67.7293C68.8524 68.2448 68.1407 68.7232 67.4049 69.1625C65.4326 70.291 63.5027 71.1467 61.5584 72.364C60.982 72.7985 60.4964 73.3391 60.1269 73.9551C60.1015 74.0401 60.067 74.1223 60.0239 74.2004C59.9847 74.2712 59.9388 74.3379 59.8869 74.3994C59.8772 74.4195 59.8676 74.4396 59.8582 74.4598C59.3059 75.707 58.8304 76.9826 58.4317 78.2865C58.2641 79.192 57.8406 80.0211 57.2091 80.6917C54.4602 82.4501 51.1435 83.0922 47.937 82.4868C43.0191 81.6408 38.298 79.8998 34.0083 77.3503C34.4539 76.7666 33.9508 71.465 34.1173 70.2806L33.0082 70.1248C32.7295 70.0629 32.3328 69.6529 32.3328 69.6529C32.3328 69.6529 31.2887 76.9277 31.444 77.8341C31.4597 78.1106 31.5418 78.3792 31.6835 78.6171C31.8251 78.855 32.0221 79.0552 32.2578 79.2007C36.9955 82.2497 42.2776 84.3573 47.809 85.4094C51.7869 86.2365 55.9304 85.4914 59.3709 83.3303C60.091 82.8054 60.6732 82.1117 61.0679 81.3148C61.6617 80.0788 62.1623 78.8067 62.5696 77.4987C62.6478 76.7988 62.8952 76.1307 63.2882 75.5477C65.2341 74.2903 67.1116 73.5484 69.052 72.3306C69.9556 71.8409 70.813 71.2774 71.6243 70.6401C73.8472 68.9664 75.6832 66.8332 77.0073 64.3858C78.3313 61.9384 79.1122 59.2343 79.2967 56.4579Z" fill="#FFF000" />
        <path d="M42.4713 73.2643C39.6203 72.4543 36.8356 71.4598 34.1173 70.2806C33.9508 71.465 34.4539 76.7666 34.0083 77.3503C38.298 79.8998 43.0191 81.6408 47.937 82.4868C51.1435 83.0922 54.4602 82.4501 57.2091 80.6917C57.8406 80.0211 58.2641 79.192 58.4317 78.2865C58.8304 76.9826 59.3059 75.707 59.8582 74.4598C59.8676 74.4396 59.8772 74.4195 59.8869 74.3994C59.8287 74.4685 59.7629 74.5312 59.6907 74.5863C59.5541 74.6904 59.3974 74.7651 59.2304 74.8055C59.0635 74.8459 58.8899 74.8512 58.7208 74.821C55.7419 74.8063 52.8199 74.9611 49.9402 74.5564L46.1891 74.0292C44.9321 73.8525 43.6928 73.5976 42.4713 73.2643Z" fill="#FFF000" fill-opacity="0.32" />
        <path d="M43.9868 60.7576C44.5462 58.5015 45.032 56.1947 45.5518 53.933C46.0825 54.6593 46.704 55.296 47.4161 55.8431C48.5633 56.8203 49.9811 57.4234 51.4811 57.5858C52.8731 57.741 54.2812 57.5511 55.5822 57.0312L55.1218 60.307C54.7472 62.8772 54.5995 65.4604 54.679 68.0567C54.5621 68.8886 56.4629 69.6768 57.0477 68.3897C57.1685 65.8053 57.5274 63.2517 58.1243 60.7289C59.1616 57.3336 60.4186 54.023 61.8953 50.7971C62.0749 50.4328 62.1229 50.0175 62.0313 49.6218C61.9397 49.2261 61.714 48.8743 61.3926 48.626C61.0729 48.305 60.644 48.1164 60.1914 48.0977C59.7388 48.079 59.2958 48.2317 58.9508 48.5252C58.7637 48.6951 58.6005 48.8896 58.4656 49.1033L57.9114 49.914L56.7448 51.3173C56.1094 51.985 55.3374 52.5075 54.4815 52.8493C53.71 53.2033 52.8549 53.3349 52.0126 53.2294C51.1047 53.0924 50.2716 52.6473 49.6531 51.9687C48.8825 51.2282 48.2928 50.3202 47.9296 49.315L47.4706 47.4369C47.5207 47.0804 47.3653 46.1739 47.3195 45.9251C47.1697 45.6551 46.9594 45.4234 46.7051 45.2482C46.4509 45.073 46.1594 44.959 45.8538 44.9153C45.5497 44.7901 45.2177 44.7486 44.8921 44.7952C44.5666 44.8418 44.2596 44.9748 44.0029 45.1803C42.5511 46.3415 42.4719 54.0617 40.6798 62.7892C40.6525 63.6539 40.5318 64.5132 40.3197 65.352C40.0858 67.0156 41.8813 67.7487 42.5575 66.0704C43.2262 64.3588 43.703 62.5758 43.9868 60.7576ZM22.1905 26.212C21.7882 25.553 21.3232 24.9344 20.802 24.3648L19.1726 22.7665C17.844 21.6143 16.4124 20.6497 14.994 19.5617C14.7511 19.3358 14.43 19.2129 14.0984 19.219C13.7667 19.2252 13.4504 19.3598 13.2161 19.5946C12.9933 19.8315 12.8724 20.1465 12.8796 20.4716C12.8868 20.7967 13.0215 21.1061 13.2545 21.3329C14.2708 22.7238 15.2396 24.1081 16.2971 25.4645C16.7397 26.0518 17.1828 26.6352 17.6331 27.1388C18.0868 27.6468 18.5706 28.1995 19.0639 28.7132C20.3016 29.8323 21.4762 31.0167 22.5877 32.2662C22.7601 32.4915 23.0142 32.6399 23.2951 32.6794C23.576 32.7188 23.8612 32.6462 24.089 32.4772C24.2185 32.408 24.3326 32.3132 24.4242 32.1985C24.5158 32.0837 24.5831 31.9515 24.6219 31.8099C24.6607 31.6683 24.6702 31.5203 24.6499 31.3748C24.6296 31.2294 24.5798 31.0897 24.5036 30.9642C23.9161 29.2972 23.14 27.7028 22.1905 26.212ZM40.3785 10.8134C40.4745 11.5675 40.6256 12.3131 40.8316 13.0502C41.0143 13.7626 41.1935 14.4704 41.4559 15.19C42.0672 16.8472 42.8593 18.3682 43.5052 20.0666C43.6023 20.3132 43.7837 20.5174 44.0172 20.6428C44.2507 20.7683 44.5211 20.8068 44.7803 20.7517C45.0396 20.6965 45.2708 20.5512 45.433 20.3416C45.5952 20.132 45.6778 19.8717 45.6662 19.6069C45.6575 17.8012 45.5468 15.9974 45.3349 14.2042C45.2207 13.4521 45.0708 12.7058 44.8857 11.9679C44.7518 11.2465 44.5683 10.5351 44.3367 9.8388C43.5408 8.11527 42.794 6.56019 42.0989 4.89526C42.0683 4.7296 42.0042 4.57192 41.9106 4.43186C41.817 4.29179 41.6958 4.17227 41.5545 4.08058C41.4131 3.9889 41.2546 3.92698 41.0885 3.8986C40.9225 3.87022 40.7523 3.87598 40.5886 3.91552C40.2747 3.9969 40.0051 4.19802 39.8377 4.47576C39.6703 4.75351 39.6184 5.08578 39.6931 5.40135C39.9079 7.32194 40.0652 9.07691 40.3865 10.8145M68.4096 25.34C68.5479 25.3762 68.692 25.3847 68.8336 25.3648C68.9751 25.345 69.1113 25.2972 69.2343 25.2243C69.3573 25.1514 69.4645 25.0548 69.5499 24.9402C69.6353 24.8255 69.697 24.695 69.7316 24.5563C70.4876 23.2003 71.1788 21.8083 71.8049 20.3802C72.1249 19.5406 72.3316 18.6446 72.5724 17.7939C72.7935 16.4725 73.1249 15.172 73.5631 13.9059C73.6703 13.7703 73.7495 13.6148 73.7963 13.4483C73.843 13.2819 73.8563 13.1078 73.8353 12.9362C73.8143 12.7646 73.7596 12.5989 73.6742 12.4486C73.5888 12.2983 73.4744 12.1664 73.3377 12.0606C73.0626 11.8472 72.7143 11.7511 72.3687 11.7933C72.023 11.8355 71.7081 12.0126 71.4924 12.286C70.4806 13.3911 69.6176 14.6236 68.9251 15.9524C68.6436 16.5187 68.4002 17.1011 68.1949 17.6997C68.068 18.3147 67.981 18.934 67.9338 19.5575C67.7233 21.0547 67.8515 22.4421 67.7816 23.8016C67.7198 23.9438 67.6871 24.0971 67.6856 24.2522C67.684 24.4073 67.7135 24.5611 67.7725 24.7046C67.8314 24.8481 67.9185 24.9783 68.0286 25.0875C68.1387 25.1967 68.2657 25.2822 68.4096 25.34ZM100.616 42.5457C98.7587 42.2847 97.0628 41.7635 95.2446 41.508L92.9155 41.1807C92.1629 41.0749 91.3357 41.2414 90.5592 41.3342C88.7113 41.6831 86.908 42.1945 85.1491 42.8682C84.9835 42.868 84.82 42.9045 84.6703 42.975C84.5205 43.0456 84.3883 43.1484 84.2831 43.2762C84.1778 43.404 84.1022 43.5535 84.0617 43.714C84.0211 43.8745 84.0167 44.042 84.0486 44.2044C84.0806 44.3668 84.1481 44.5201 84.2464 44.6533C84.3447 44.7865 84.4713 44.8962 84.6171 44.9746C84.7629 45.053 84.9243 45.0982 85.0896 45.1067C85.2549 45.1153 85.42 45.0871 85.5731 45.0242C87.3867 44.9964 89.0464 45.2296 90.7584 45.349L92.9268 45.4114L95.1532 45.3204C96.8986 45.2022 98.619 45.0037 100.444 44.8966C100.773 44.9027 101.093 44.7853 101.341 44.5674C101.588 44.3495 101.745 44.0469 101.781 43.7192C101.765 43.4139 101.637 43.1253 101.421 42.9086C101.206 42.692 100.918 42.5625 100.613 42.5452M52.8301 90.3807C51.5009 90.2774 50.1845 90.0924 48.8809 89.8257C47.6134 89.6475 46.3816 89.2724 44.9707 88.9934L41.0533 88.2408C38.4469 87.8745 35.8801 87.5138 33.1939 86.8535C32.9193 86.7556 32.6174 86.7685 32.3522 86.8897C32.087 87.0108 31.8795 87.2305 31.7738 87.5022C31.6746 87.7772 31.6868 88.0801 31.8079 88.3462C31.929 88.6123 32.1494 88.8204 32.4219 88.9263C34.5112 90.1159 36.6998 91.1222 38.963 91.9339C39.9563 92.262 40.9674 92.5118 41.9962 92.6833C43.0123 92.9069 44.0395 93.0513 45.0779 93.1164C47.6578 93.269 50.2315 93.1877 52.799 92.8726C53.1292 92.8596 53.4416 92.7194 53.6708 92.4814C53.9 92.2433 54.0283 91.9258 54.0287 91.5953C54.0225 91.2771 53.8942 90.9735 53.6703 90.7473C53.4465 90.5211 53.1442 90.3897 52.8261 90.3801M47.4468 97.7593C46.1293 97.5371 44.8271 97.2327 43.5477 96.8478C42.6879 96.6686 41.8172 96.5462 40.9413 96.4815C39.3609 96.2593 37.8436 96.45 36.2844 96.3925C36.1464 96.3562 36.0026 96.3477 35.8613 96.3673C35.72 96.387 35.584 96.4344 35.4612 96.5069C35.3383 96.5794 35.2311 96.6755 35.1455 96.7897C35.06 96.9039 34.998 97.0339 34.963 97.1722C34.9096 97.4601 34.9633 97.7576 35.114 98.0087C35.2647 98.2598 35.502 98.4471 35.7813 98.5353C37.0406 99.232 38.3344 99.8555 39.6627 100.406C40.2341 100.594 40.8177 100.743 41.4134 100.854C42.0126 100.978 42.6173 101.063 43.2276 101.109C44.7643 101.033 46.2834 100.746 47.7421 100.257C48.0642 100.224 48.3611 100.068 48.5696 99.8203C48.7782 99.5727 48.882 99.2535 48.859 98.9306C48.8361 98.6077 48.6881 98.3064 48.4466 98.0909C48.2051 97.8753 47.8891 97.7623 47.5656 97.776L47.4468 97.7593Z" fill="#FFF000" />
    </g>
    <defs>
        <filter id="filter0_d_1001_1645" x="-12" y="-12" width="132.426" height="132.426" filterUnits="userSpaceOnUse" color-interpolation-filters="sRGB">
            <feFlood flood-opacity="0" result="BackgroundImageFix" />
            <feColorMatrix in="SourceAlpha" type="matrix" values="0 0 0 0 0 0 0 0 0 0 0 0 0 0 0 0 0 0 127 0" result="hardAlpha" />
            <feOffset dy="4" />
            <feGaussianBlur stdDeviation="2" />
            <feComposite in2="hardAlpha" operator="out" />
            <feColorMatrix type="matrix" values="0 0 0 0 0 0 0 0 0 0 0 0 0 0 0 0 0 0 0.2 0" />
            <feBlend mode="normal" in2="BackgroundImageFix" result="effect1_dropShadow_1001_1645" />
            <feBlend mode="normal" in="SourceGraphic" in2="effect1_dropShadow_1001_1645" result="shape" />
        </filter>
        <clipPath id="clip0_1001_1645">
            <rect width="96" height="96" fill="white" transform="translate(13.3606) rotate(8)" />
        </clipPath>
    </defs>
</svg>
